<?xml version="1.0" encoding="utf-8"?>
<!-- Generator: Adobe Illustrator 21.0.0, SVG Export Plug-In . SVG Version: 6.00 Build 0)  -->
<svg version="1.1" id="Layer_1" xmlns="http://www.w3.org/2000/svg" xmlns:xlink="http://www.w3.org/1999/xlink" x="0px" y="0px"
	 viewBox="0 0 400 400" style="enable-background:new 0 0 400 400;" xml:space="preserve">
<style type="text/css">
	.st0{fill:#B3B2B1;}
	.st1{fill:#003DA6;}
	.st2{fill:#DD0031;}
	.st3{fill:#FFFFFF;}
</style>
<g>
	<path class="st0" d="M347,199.6c0,81.5-66.1,147.6-147.6,147.6c-81.5,0-147.6-66.1-147.6-147.6C51.7,118.1,117.8,52,199.4,52
		C280.9,52,347,118.1,347,199.6"/>
	<g>
		<path class="st1" d="M342.8,199.6c0,79.2-64.2,143.4-143.4,143.4C120.2,343,56,278.8,56,199.6c0-79.2,64.2-143.4,143.4-143.4
			C278.6,56.2,342.8,120.4,342.8,199.6"/>
		<g>
			<path class="st2" d="M321.6,199.6c0,67.5-54.7,122.3-122.3,122.3c-67.5,0-122.3-54.7-122.3-122.3c0-67.5,54.7-122.3,122.3-122.3
				C266.9,77.3,321.6,132.1,321.6,199.6"/>
			<path class="st3" d="M199.4,77.3c-67.4,0-122.3,54.9-122.3,122.3c0,67.4,54.9,122.3,122.3,122.3c67.4,0,122.3-54.9,122.3-122.3
				C321.6,132.2,266.8,77.3,199.4,77.3 M84.2,203.2h22.5V196H84.2c0.1-2.7,0.2-5.4,0.5-8.1c8-40.2,56.3-71.1,114.7-71.1
				c58.3,0,106.7,31,114.7,71.1c0.3,2.7,0.4,5.4,0.5,8.1H292v7.2h22.5c-0.1,2.7-0.2,5.4-0.5,8.1c-8,40.1-56.4,71.1-114.7,71.1
				c-58.3,0-106.7-31-114.7-71.1C84.4,208.6,84.3,205.9,84.2,203.2 M199.4,84.4c48.8,0,90.7,30.5,107.4,73.5
				c-20.5-28-60.9-47.2-107.4-47.2c-46.5,0-86.9,19.1-107.4,47.2C108.7,114.9,150.5,84.4,199.4,84.4 M199.4,314.9
				c-48.8,0-90.7-30.5-107.4-73.5c20.5,28,60.9,47.2,107.4,47.2c46.5,0,86.9-19.1,107.4-47.2C290,284.3,248.2,314.9,199.4,314.9"/>
			<g>
				<g>
					<rect x="147.7" y="202.8" class="st3" width="8.6" height="38.8"/>
					<path class="st3" d="M180.8,202.8l-0.3,0c-2.4,0-11.3-0.1-13,0l-0.4,0c-2.6,0-4.3,1.2-4.7,3.5c-0.1,0.4-0.1,0.6-0.1,0.6
						c0,0.1-0.6,7.4,0.1,9.4c1.2,3.3,3.9,4.6,6.3,5.3c0.1,0,0.2,0.1,0.3,0.1c0.2,0,0.3,0.1,0.5,0.2c0.3,0.1,0.5,0.3,0.6,0.4l0,14
						l-7.1,0l0,5.2l9.4,0h0c3.3-0.1,5.5-1.6,6.3-4c0.2-1.9,0.3-14.9,0.1-17.6c-0.1-1-0.5-1.9-1.5-2.6c-0.4-0.3-0.8-0.6-1.4-0.9
						c-0.5-0.3-1.1-0.5-1.6-0.8c-2-1-4.3-2.1-4.3-4.7l0-2.2l6.8,0c1.4,0,2.5-0.7,3.2-2c0.5-1,0.7-2,0.7-2c0.1-0.6,0-1.2,0-1.6
						L180.8,202.8z"/>
					<path class="st3" d="M220.4,202.8c-1.9,0-4,0.1-5.6,0.5c-4.2,1-6.3,3.8-6.3,8.7v23.1c0,5.9,4.2,7.1,10.6,7.1
						c7.7,0,12.1-2.7,12.1-7.5l0-24.1C231.2,202.8,226.2,202.8,220.4,202.8 M217.5,211.6c0-1,0.1-1.8,0.3-2.4l0.2-0.1
						c0.4-0.1,0.8-0.1,1.2-0.1l0.2,0c2.9,0,3,0.9,3,6.2v16.2c0,0.5,0,0.9,0,1.4c0,0.5-0.1,0.9-0.2,1.3l-0.2,0.2
						c-0.5,0.1-1,0.1-1.5,0.1c-1.1,0-1.8-0.2-2.3-0.7c-0.7-0.7-0.7-1.9-0.7-3.3V214C217.5,214,217.5,212.2,217.5,211.6"/>
					<path class="st3" d="M251.2,219.3c-4.1-15-10.8-16.6-13.5-16.6c-0.7,0-1.1,0.1-1.2,0.1l-0.2,0.1l0,38.8l8.8,0v-15.6l6.1,15.6
						h8.9v-38.8h-8.9V219.3z"/>
					<path class="st3" d="M137.2,202.8l-21.8,0l-0.3,0l0,0.3c0,0-0.2,4.6,4.9,5.7v32.9h9v-16.5h7.5c4,0,6.3-2.6,6.3-7.2l0-1.4
						C142.7,205.6,142.3,203.4,137.2,202.8 M133.7,220.1l-4.9,0v-11.3c0,0,2.6-0.1,3,0c1,0.1,1.8,0.5,1.8,1.7
						C133.7,210.8,133.7,220.1,133.7,220.1"/>
					<path class="st3" d="M205.8,202.9h-20.2v6.1h5.8v32.8l8.9,0l0-32.8c0.1,0,0.2,0,0.3,0c1.6,0,2.9-0.5,3.8-1.4
						c1.6-1.7,1.5-4.3,1.5-4.4L205.8,202.9z"/>
					<path class="st3" d="M283.7,202.8l-0.3,0c-2.4,0-11.3-0.1-13,0l-0.4,0c-2.6,0-4.3,1.2-4.7,3.5c-0.1,0.4-0.1,0.6-0.1,0.6
						c0,0.1-0.6,7.4,0.1,9.4c1.2,3.3,3.9,4.6,6.3,5.3c0.1,0,0.2,0.1,0.3,0.1c0.2,0,0.3,0.1,0.5,0.2c0.3,0.1,0.5,0.3,0.6,0.4l0,14
						l-7.1,0l0,5.2l9.4,0h0c3.3-0.1,5.5-1.6,6.3-4c0.2-1.9,0.3-14.9,0.1-17.6c-0.1-1-0.5-1.9-1.5-2.6c-0.4-0.3-0.8-0.6-1.4-0.9
						c-0.5-0.3-1.1-0.5-1.6-0.8c-2-1-4.3-2.1-4.3-4.7l0-2.2l6.8,0c1.4,0,2.5-0.7,3.2-2c0.5-1,0.7-2,0.7-2c0.1-0.6,0-1.2,0-1.6
						L283.7,202.8z"/>
				</g>
				<g>
					<path class="st3" d="M204.3,178.8h1.5c1.4,0,3.9,0.5,3.9,3.1c0,1.2,0.1,5.1,0.2,6.6l0,0.6c0,0.2,0.1,2.1,0.2,2.5
						c0.6,2.3,2.4,3.6,5.1,3.9h2.5v-13.8c0-1.2-0.6-2.8-1.6-4l-0.2-0.2c1.4-1.6,1.9-3.1,1.9-5.5l0-1.4c0-10.7-0.4-12.9-5.4-13.4
						h-16.8v37.9h8.6V178.8z M204.3,163l1.5,0l0.2,0c2.3,0,3.1,0,3,4c0,3.2,0,3.4-0.1,4.9l0,0.3c0,0.5-0.2,1-0.5,1.3
						c-0.2,0.2-0.4,0.3-0.7,0.3h-3.5V163z"/>
					<polygon class="st3" points="257.9,157 249.5,157 249.5,194.9 257.9,194.9 					"/>
					<path class="st3" d="M177,195l8.7,0l0-32c0.1,0,0.2,0,0.3,0c1.6,0,2.8-0.5,3.7-1.4c1.6-1.7,1.5-4.1,1.5-4.3l0-0.3h-19.8v6h5.6
						V195z"/>
					<path class="st3" d="M268,195l8.7,0v-32c0.1,0,0.2,0,0.3,0c1.6,0,2.8-0.5,3.7-1.4c1.6-1.7,1.5-4.1,1.5-4.3l0-0.3h-19.8v6h5.6
						V195z"/>
					<polygon class="st3" points="166.8,188.9 157.7,188.9 157.7,179.6 163.9,179.6 163.9,171.4 157.7,171.4 157.7,162.9 
						166.8,162.9 166.8,157 149.3,157 149.2,194.9 166.8,194.9 					"/>
					<path class="st3" d="M138.3,157h-21.6l0,0.2c0,0.1-0.3,2.3,1.1,3.9c0.9,1.1,2.2,1.6,4,1.8v31.9h16.1c3.7,0,6.1-3.1,6.1-7.8
						l0-17.6C144,159.8,144,157.2,138.3,157 M135.3,188.9h-4.8V163c3-0.1,3.6,0.1,3.7,0.2c1.1,0.4,1.1,2.5,1.1,2.6
						C135.5,168.7,135.3,186.5,135.3,188.9"/>
					<path class="st3" d="M234.1,157c-1.9,0-3.9,0.1-5.6,0.5c-4.2,1-6.2,3.8-6.2,8.5v22.6c0,5.8,4.2,7,10.5,7c7.6,0,12-2.7,12-7.3
						l0-23.6C244.9,157,239.9,157,234.1,157 M231.3,165.6c0-1,0.1-1.8,0.3-2.4l0.2-0.1c0.4-0.1,0.8-0.1,1.2-0.1l0.2,0
						c2.9,0,3,0.9,3,6.1V185c0,0.5,0,0.9,0,1.4c0,0.5-0.1,0.9-0.2,1.3l-0.2,0.1c-0.5,0.1-1,0.1-1.5,0.1c-1.1,0-1.8-0.2-2.3-0.7
						c-0.7-0.7-0.7-1.9-0.7-3.2v-16C231.3,168,231.3,166.2,231.3,165.6"/>
				</g>
			</g>
		</g>
	</g>
</g>
</svg>
