<?xml version="1.0" encoding="UTF-8"?>
<!-- Generator: Adobe Illustrator 16.2.1, SVG Export Plug-In . SVG Version: 6.00 Build 0)  -->
<!DOCTYPE svg PUBLIC "-//W3C//DTD SVG 1.1//EN" "http://www.w3.org/Graphics/SVG/1.1/DTD/svg11.dtd">
<svg version="1.1" id="Layer_2" xmlns="http://www.w3.org/2000/svg" xmlns:xlink="http://www.w3.org/1999/xlink" x="0px" y="0px" width="400px" height="400px" viewBox="0 0 400 400" enable-background="new 0 0 400 400" xml:space="preserve">
<g>
	<path fill="#0068B3" d="M93.713,339.219l24.807-12.646c1.305-0.658,2.198-0.99,2.608-1.045l0.214-0.02   c0.374,0,0.924,0.148,1.604,0.496l0.177,0.064l0.695-0.748l0.172-0.219l-9.432-8.428l-0.742,0.812l-0.136,0.186l0.136,0.195   c0.437,0.555,0.624,1.033,0.624,1.357l-0.214,0.623c-0.264,0.275-0.818,0.662-1.686,1.098l-16.756,8.711l6.823-18.01   c0.27-0.76,0.502-1.219,0.646-1.369l0.834-0.383c0.348,0,0.771,0.113,1.257,0.373l0.161,0.096l0.689-0.775l0.213-0.213   l-9.979-8.889l-0.724,0.809l-0.158,0.197l0.131,0.16c0.398,0.523,0.565,0.951,0.565,1.273l-0.273,0.676   c-0.086,0.129-0.562,0.445-1.324,0.803l-17.478,8.627l6.964-17.881c0.287-0.707,0.565-1.197,0.789-1.436l0.754-0.346l1.125,0.346   l0.206,0.098l0.68-0.785l0.171-0.193l-9.54-8.529l-0.743,0.828l-0.134,0.168l0.125,0.184c0.462,0.586,0.66,1.16,0.66,1.682   c0,0.547-0.229,1.502-0.689,2.777l-9.8,26.092c-0.459,1.238-0.848,2.008-0.933,2.092l-0.973,0.482l-1.124-0.391l-0.208-0.092   l-0.685,0.773l-0.176,0.195l8.824,7.912l0.758-0.807l0.145-0.158l-0.123-0.17c-0.433-0.648-0.607-1.115-0.607-1.516l0.263-0.674   c0.106-0.107,0.719-0.477,1.762-0.926l18.914-9.48l-7.24,19.375c-0.401,1.25-0.733,2.018-0.904,2.17l-0.904,0.455   c-0.351,0-0.76-0.129-1.23-0.434l-0.208-0.133l-0.69,0.795l-0.171,0.227l8.962,8.004l0.72-0.822l0.174-0.199l-0.147-0.148   c-0.452-0.557-0.629-1-0.629-1.348l0.294-0.707C91.804,340.283,92.526,339.805,93.713,339.219 M128.203,325.32l-0.091,0.172   l0.133,0.164c0.476,0.459,0.685,0.889,0.685,1.307l-0.14,0.564c-0.224,0.381-0.662,0.91-1.384,1.461l-23.522,18.604   c-0.86,0.695-1.484,1.107-1.904,1.225l-0.642,0.098l-0.914-0.135l-0.23-0.059l-0.481,0.926l-0.131,0.25l10.958,5.375l0.504-1.006   l0.091-0.197l-0.173-0.141c-0.634-0.506-0.896-0.988-0.896-1.377l0.104-0.449c0.158-0.279,0.496-0.68,1.089-1.15l4.291-3.396   l13.91,6.973v5.354c0,0.775-0.085,1.314-0.182,1.557c-0.257,0.455-0.572,0.65-1.134,0.674l-0.823-0.125l-0.182-0.074l-0.481,0.959   l-0.097,0.217l12.113,5.975l0.48-0.996l0.085-0.229l-0.16-0.127c-0.567-0.414-0.909-0.873-1.085-1.365   c-0.176-0.52-0.3-1.418-0.3-2.684l-0.122-30.285c0-0.693,0.095-1.252,0.277-1.619c0.209-0.391,0.536-0.582,1.192-0.609l0.562,0.049   l0.685-0.885l0.112-0.24l-11.738-5.73L128.203,325.32z M129.625,348.656l-9.57-4.721l9.939-8.055L129.625,348.656z    M181.677,343.816c-0.989-1.059-2.251-1.855-3.77-2.533c-1.518-0.621-3.572-1.188-6.198-1.76l-21.812-4.551l-0.268,1.072   c0.716,0.59,1.053,0.869,1.166,1.117l0.123,0.572l-0.032,0.494l-6.091,29.197l-0.497,0.926c-0.236,0.145-0.636,0.293-1.247,0.305   l-0.433,1.031l-0.047,0.252l11.266,2.389l0.241-1.094c-0.674-0.568-0.995-0.84-1.15-1.07l-0.139-0.627l0.048-0.422l2.353-11.197   l8.92,1.877l4.642,11.439c0.492,1.176,0.748,1.951,0.732,2.229v0.092c-0.059,0.197-0.289,0.363-1.011,0.373h-0.209l-0.455,1.037   l-0.037,0.273l12.978,2.686l0.235-1.061l0.053-0.246l-0.262-0.062c-0.722-0.209-1.268-0.547-1.664-1.113   c-0.437-0.566-1.08-1.828-1.898-3.699l-4.528-10.535h0.673c5.844,0.031,9.491-2.732,10.598-8.145   c0.166-0.871,0.268-1.754,0.268-2.588c0-0.797-0.081-1.582-0.224-2.354C183.629,346.453,182.864,345.004,181.677,343.816    M175.96,351.33c-0.4,1.732-1.218,2.738-2.544,3.133c-0.492,0.141-1.021,0.252-1.556,0.252l-0.413-0.01   c-0.705-0.07-1.936-0.262-3.636-0.637l-11.342-2.357l1.781-8.492l11.332,2.385c1.78,0.32,2.973,0.635,3.604,0.855   c0.604,0.24,1.16,0.582,1.7,1.047c0.792,0.631,1.177,1.488,1.177,2.631L175.96,351.33z M222.703,371.906l-6.968-9.102   c5.93-1.25,8.999-4.662,8.984-10.047l-0.012-0.576c-0.074-1.729-0.454-3.344-1.139-4.83c-0.775-1.539-1.877-2.775-3.305-3.619   c-1.257-0.766-2.669-1.273-4.3-1.527c-1.155-0.164-2.562-0.244-4.213-0.244c-0.69,0-1.444,0.006-2.215,0.049l-21.989,0.893   l-0.234,1.08c0.78,0.385,1.182,0.594,1.391,0.824c0.177,0.17,0.31,0.512,0.32,1.006l1.192,29.77v0.121l-0.283,0.914   c-0.149,0.193-0.54,0.418-1.122,0.631l-0.177,1.098l11.304-0.178l0.198-1.133c-0.802-0.342-1.155-0.551-1.353-0.754   c-0.209-0.209-0.353-0.529-0.375-1.016l-0.433-11.373l9.106-0.365l7.311,9.947c0.828,1.107,1.24,1.859,1.24,2.021v0.031   c0,0.262-0.23,0.518-1.075,0.707l-0.165,1.08l12.978-0.221l0.252-1.102c-1.049-0.289-1.658-0.518-2.192-0.967   C224.923,374.602,223.97,373.57,222.703,371.906 M187.801,343.164v-0.01l0.765-0.021L187.801,343.164z M188.918,378.062   L188.918,378.062L188.918,378.062L188.918,378.062z M214.672,377.035l0.004-0.021l0.007,0.021H214.672z M214.847,356.09   c-0.565,0.332-1.208,0.561-1.877,0.678c-0.684,0.129-1.908,0.221-3.662,0.307l-11.572,0.465l-0.369-8.967l0.429-0.018l11.187-0.15   c0.877-0.041,1.614-0.08,2.272-0.08c0.604,0,1.069,0.039,1.396,0.08c0.643,0.055,1.295,0.252,1.909,0.547   c1.193,0.588,1.866,1.715,1.952,3.492v0.268C216.511,354.352,215.944,355.422,214.847,356.09 M243.403,370.865   c-0.251-0.166-0.429-0.482-0.54-0.947l-6.428-29.125l-0.06-0.488l0.129-0.557c0.149-0.236,0.477-0.545,0.989-0.807l-0.006-1.117   l-0.069-0.27l-11.267,2.477l0.219,1.096c0.894,0.248,1.294,0.377,1.53,0.551l0.496,0.889l6.438,29.137l0.038,0.498l-0.112,0.562   c-0.14,0.24-0.46,0.551-1.011,0.822l0.026,1.117l0.08,0.262l11.278-2.49l-0.263-1.07   C244.045,371.195,243.633,371.062,243.403,370.865 M273.001,328.775c-1.871-0.674-3.883-1.012-5.936-1.012   c-3.037,0-6.251,0.732-9.637,2.178c-7.556,3.328-11.897,8.32-12.871,14.914c-0.149,0.93-0.23,1.865-0.23,2.77   c0,2.518,0.525,4.945,1.536,7.348c0.951,2.25,2.299,4.197,3.979,5.908c1.925,1.904,4.127,3.311,6.642,4.188   c1.893,0.674,3.882,1.031,5.973,1.031c2.989,0,6.177-0.717,9.545-2.16c7.523-3.193,11.851-8.203,12.897-14.945   c0.156-1.021,0.251-2.006,0.251-2.959c0-2.416-0.513-4.73-1.443-6.961C281.514,333.965,277.932,330.514,273.001,328.775    M276.947,347.062c0,1.775-0.332,3.418-1.08,4.941c-1.209,2.658-3.342,4.615-6.416,5.914c-1.804,0.76-3.52,1.156-5.193,1.156   c-1.209,0-2.38-0.182-3.566-0.584c-3.263-1.117-5.643-3.363-7.106-6.779c-0.743-1.738-1.08-3.412-1.08-5.033   c0-1.641,0.337-3.256,1.091-4.818c1.256-2.656,3.379-4.609,6.417-5.902c1.791-0.766,3.555-1.135,5.271-1.135   c1.167,0,2.343,0.184,3.509,0.551c3.245,1.059,5.604,3.354,7.154,6.941c0.668,1.48,0.974,3.004,1,4.615V347.062z M327.336,326.227   l-0.251,0.123c-0.545,0.404-1.133,0.564-1.764,0.58h-0.188c-0.664-0.059-2.032-0.385-4-0.971l-10.94-3.422   c2.31-2.527,3.485-5.078,3.485-7.623c0-2.111-0.802-4.207-2.357-6.197c-1.044-1.385-2.31-2.473-3.738-3.281   c-1.315-0.725-2.7-1.082-4.149-1.061l-0.642,0.023c-1.422,0.084-2.883,0.506-4.342,1.244c-1.477,0.721-3.242,1.92-5.396,3.582   l-17.636,13.613l0.674,0.863l0.102,0.148l0.198-0.086l1.068-0.25l0.209,0.016l0.898,0.662l18.166,23.594l0.405,0.936v0.059   c-0.036,0.246-0.196,0.646-0.576,1.148l-0.107,0.174l0.631,0.826l0.171,0.215l9.128-7.047l-0.679-0.877l-0.123-0.188l-0.197,0.102   l-1.064,0.262l-0.183-0.016l-0.882-0.631l-6.951-9.021l7.208-5.572l11.742,3.914c1.332,0.385,2.14,0.818,2.198,0.926l0.096,0.246   l-0.571,0.918l-0.15,0.143l0.658,0.881l0.149,0.219l10.523-8.135l-0.678-0.854L327.336,326.227z M305.546,317.588   c-0.272,0.594-0.642,1.148-1.145,1.637c-0.48,0.529-1.417,1.342-2.791,2.379l-9.198,7.064l-5.294-6.877l9.188-7.053   c1.385-1.084,2.417-1.797,3.01-2.156c0.562-0.336,1.198-0.535,1.84-0.631l0.551-0.053c1.149,0,2.155,0.557,3.102,1.756   c0.679,0.906,1.016,1.779,1.016,2.602L305.546,317.588z M348.459,295.695c-0.492-2.492-1.716-4.572-3.706-6.164   c-1.246-1.018-2.642-1.713-4.171-2.039c-0.728-0.186-1.417-0.246-2.128-0.246c-0.802,0-1.572,0.111-2.343,0.303   c-1.368,0.414-2.699,1.057-4.032,1.945c-1.299,0.891-2.828,2.191-4.545,3.896l-2.877,2.893c-1.887,1.941-3.209,3.143-3.903,3.615   c-0.68,0.459-1.32,0.68-1.877,0.68c-0.471,0-0.941-0.15-1.401-0.535c-0.534-0.459-0.903-1.064-1.027-1.92l-0.069-0.742   c0-0.633,0.14-1.332,0.369-2.027c0.54-1.32,1.375-2.707,2.508-4.102c2.562-3.156,5.605-5.24,9.14-6.277   c0.508-0.158,0.973-0.242,1.358-0.242l0.796,0.215l0.284,0.297l1.059-0.297l0.24-0.107l-4-8.963l-0.235,0.113l-0.785,0.311   c-0.155,0.873-0.252,1.24-0.424,1.441c-0.042,0.084-0.614,0.459-1.513,0.971c-2.823,1.508-4.983,2.854-6.599,4.094   c-1.599,1.215-3.112,2.729-4.529,4.5c-3.139,3.854-4.727,7.535-4.727,11.066l0.054,0.932c0.219,2.883,1.534,5.316,3.919,7.225   c1.423,1.148,2.973,1.869,4.62,2.139c0.492,0.066,0.963,0.109,1.481,0.109c1.289,0,2.508-0.248,3.7-0.816   c1.146-0.5,2.171-1.121,3.08-1.848c0.883-0.717,2.272-1.99,4.149-3.904l2.856-2.828c1.865-1.873,3.251-3.045,4.026-3.494   c0.508-0.303,1-0.426,1.448-0.426l1.354,0.527c0.523,0.445,0.935,1.045,1.138,1.857l0.14,1.227c0,0.451-0.049,0.904-0.155,1.393   c-0.406,1.686-1.32,3.428-2.722,5.178c-1.31,1.611-2.995,3.08-4.989,4.404c-2.017,1.375-3.733,2.156-5.139,2.381l-0.663,0.072   c-0.615,0-1.08-0.168-1.481-0.506l-0.262-0.219l-1.06,0.342l-0.256,0.107l4.551,8.898l1.026-0.439   c0.166-0.822,0.235-1.234,0.31-1.283c0.011-0.008,0.589-0.369,1.519-0.836c4.62-2.137,8.438-5.033,11.38-8.678   c1.669-2.035,2.962-4.164,3.898-6.32c0.926-2.186,1.406-4.141,1.406-5.992C348.651,296.936,348.604,296.303,348.459,295.695"/>
	<path fill="#0068B3" d="M341.918,192.083c0,77.913-63.157,141.081-141.103,141.081c-77.938,0-141.107-63.168-141.107-141.081   c0-77.929,63.168-141.141,141.107-141.141C278.761,50.943,341.918,114.155,341.918,192.083"/>
	<path fill="#FFC627" d="M296.263,275.52c21.304-23.127,34.32-53.994,34.32-87.912c0-71.724-58.132-129.811-129.826-129.811   c-71.708,0-129.832,58.087-129.832,129.811c0,71.707,58.124,129.814,129.832,129.814c36.454,0,69.378-15.041,92.955-39.234   C294.498,277.754,295.45,276.627,296.263,275.52 M166.555,269.996c51.864-2.369,103.286-1.59,124.655-1.086   c-0.9,1.002-1.84,1.979-2.776,2.955C272.562,270.615,235.494,268.703,166.555,269.996 M90.44,201.031   c1.894-2.841,3.889-5.916,5.974-9.223l-7.639,43.327c-1.389-3.271-2.618-6.627-3.725-10.041L90.44,201.031z M83.232,218.949   c-0.487-1.818-0.92-3.656-1.324-5.504c1.267-1.773,2.698-3.812,4.3-6.139L83.232,218.949z M99.836,186.287   c2.704-4.422,5.477-9.123,8.251-14.069l-13.176,75.271c-1.575-2.773-3.042-5.609-4.4-8.518L99.836,186.287z M111.953,165.138   c3.439-6.452,6.767-13.203,9.855-20.101l-20.061,113.161c-1.746-2.441-3.428-4.934-4.994-7.506L111.953,165.138z M130.855,129.93   c0.663,0.738,1.32,1.444,1.984,2.176c0.493,20.753,1.995,81.345,3.727,124.617c-0.941,0.104-1.845,0.213-2.76,0.316   C131.936,211.365,131.123,153.651,130.855,129.93 M227.896,216.398l0.053,0.182l0.012,0.006l-0.054-0.178   c0.139,0.092,0.282,0.193,0.422,0.289l-0.368-0.111l10.389,32.875c-2.636,0.072-5.245,0.158-7.838,0.252l-12.668-40.314   C221.291,211.879,224.628,214.195,227.896,216.398 M272.953,249.012l-2.593-8.146c9.367,4.398,16.453,7.002,20.758,8.402   C285.022,249.125,278.958,249.039,272.953,249.012 M267.183,239.346l3.064,9.666c-2.669-0.006-5.326,0-7.967,0.016l-4.541-14.506   C261.082,236.312,264.231,237.916,267.183,239.346 M254.467,232.74l5.111,16.316c-2.565,0.021-5.127,0.051-7.673,0.098   l-6.732-21.764C248.397,229.318,251.509,231.107,254.467,232.74 M241.842,225.393l7.38,23.812c-2.76,0.049-5.498,0.107-8.22,0.186   l-9.748-30.736C234.912,221.072,238.446,223.318,241.842,225.393 M214.046,206.617l13.801,43.193   c-2.545,0.094-5.059,0.207-7.561,0.314l-16.096-50.972C207.548,201.773,210.826,204.244,214.046,206.617 M200.409,196.164   l17.197,54.079c-2.77,0.129-5.513,0.266-8.224,0.414L189.009,186.8C192.886,190.086,196.683,193.185,200.409,196.164    M185.431,183.725l21.304,67.085c-2.465,0.137-4.914,0.279-7.326,0.426l-24.181-76.548   C178.678,177.827,182.084,180.84,185.431,183.725 M171.298,171.105l25.464,80.303c-2.62,0.17-5.204,0.342-7.754,0.523   l-28.727-91.318C163.999,164.239,167.684,167.752,171.298,171.105 M155.785,156.215l30.582,95.906   c-2.535,0.18-5.027,0.371-7.487,0.566l-33.561-107.18C148.838,149.186,152.336,152.785,155.785,156.215 M141.096,141.058   l35.165,111.833c-2.802,0.229-5.545,0.457-8.235,0.693l-26.577-85.463c-0.402-10.732-0.728-20.242-0.963-27.705   C140.689,140.635,140.898,140.839,141.096,141.058 M120.93,205.779l-0.37-0.064l-9.611,54.178c-2.685,0.363-5.038,0.693-7.07,0.99   l17.71-99.82C121.363,174.463,121.123,190.07,120.93,205.779 M141.86,178.816l23.535,75.004c-2.348,0.207-4.652,0.422-6.909,0.631   l-15.502-49.256C142.565,196.11,142.192,187.217,141.86,178.816 M143.485,215.811l12.369,38.891   c-3.492,0.342-6.85,0.686-10.096,1.027C144.909,243.051,144.154,229.398,143.485,215.811 M113.64,259.531l7.14-40.293   c-0.147,14.16-0.244,27.816-0.234,39.395C118.068,258.947,115.788,259.242,113.64,259.531 M120.644,275.018   c0.021,1.459,0.047,2.834,0.075,4.117c-1.476-1.283-2.92-2.609-4.326-3.969C117.675,275.123,119.06,275.07,120.644,275.018    M134.614,274.594c0.882-0.027,1.807-0.049,2.727-0.076c0.326,6.85,0.664,12.779,0.995,17.477c-0.941-0.566-1.86-1.156-2.786-1.746   C135.214,285.439,134.903,280.178,134.614,274.594 M200.763,65.917c67.19,0,121.639,54.471,121.639,121.656   c0,20.013-4.861,38.875-13.423,55.531c-84.597-18.941-144.904-77.423-168.524-103.832c-0.316-9.834-0.476-15.881-0.476-15.881   l-3.77-1.701l-3.54,3.056c0,0,0.042,2.067,0.127,5.632c-0.812-0.989-1.443-1.778-1.962-2.433c-0.064-5.686-0.091-8.982-0.091-8.982   h-5.225l-0.091,3.122l-3.144,0.758c0,0-0.129,6.6-0.326,17.113c-15.705,35.908-32.982,56.424-41.554,65.161   c-0.829-5.729-1.278-11.584-1.278-17.544C79.125,120.388,133.583,65.917,200.763,65.917 M149.523,297.914   c-0.856-6.521-1.653-14.555-2.406-23.627c37.795-0.826,95.735-1.154,135.872,2.926c-21.646,19.881-50.517,32.021-82.227,32.021   C182.447,309.234,165.095,305.166,149.523,297.914"/>
	<path fill="#0068B3" d="M82.796,95.448l-0.558-0.107l-3.677-2.683l-0.433-0.565c-0.009-0.176,0.117-0.507,0.366-0.984l-0.585-0.435   L71.965,98.8l-0.642,0.575l-0.914-0.219l-0.428,0.578l4.153,3.048l0.436-0.577l-0.631-0.912l0.302-0.817l3.04-4.167l2.799,2.035   c-0.273,0.878-0.66,1.875-1.182,3.009c-0.51,1.147-1.222,2.318-2.128,3.558c-0.585,0.803-1.284,1.515-2.094,2.139   c-0.796,0.633-1.666,1.079-2.598,1.349c-0.922,0.252-1.912,0.307-2.965,0.112c-1.038-0.178-2.093-0.662-3.158-1.44   c-1.075-0.778-1.866-1.651-2.339-2.573c-0.483-0.933-0.741-1.895-0.762-2.861c-0.024-0.969,0.139-1.936,0.497-2.881   c0.348-0.961,0.813-1.839,1.404-2.644c0.476-0.653,1.021-1.304,1.64-1.97c0.615-0.651,1.246-1.229,1.871-1.714   c0.639-0.484,1.24-0.826,1.796-1.032c0.551-0.21,0.987-0.21,1.313,0.039l0.34,0.35l0.669-0.52l-2.878-5.037l-0.513,0.212   l-0.013,0.501l-0.206,0.548l-0.815,0.671c-0.465,0.343-1.022,0.782-1.679,1.338c-0.655,0.542-1.366,1.21-2.126,1.991   c-0.762,0.771-1.497,1.62-2.192,2.576c-1.112,1.523-1.919,3.053-2.436,4.586c-0.511,1.542-0.709,3.04-0.602,4.474   c0.112,1.435,0.521,2.798,1.23,4.071c0.722,1.267,1.756,2.411,3.131,3.403c1.366,0.996,2.754,1.648,4.19,1.944   c1.419,0.306,2.834,0.271,4.229-0.063c1.396-0.353,2.743-0.988,4.037-1.954c1.284-0.975,2.495-2.213,3.599-3.738   c0.572-0.771,1.128-1.599,1.679-2.435c0.554-0.837,1.037-1.741,1.446-2.684c0.404-0.946,0.74-1.938,0.995-2.961   c0.256-1.026,0.396-2.086,0.42-3.166l-0.521-0.389L82.796,95.448z M101.994,67.533c-1.244-1.369-2.629-2.286-4.136-2.743   c-1.503-0.455-3.027-0.585-4.548-0.386c-1.538,0.191-3.02,0.646-4.439,1.333c-1.44,0.71-2.697,1.556-3.783,2.557   c-1.095,0.989-2.053,2.16-2.893,3.535c-0.829,1.358-1.412,2.782-1.749,4.285c-0.327,1.501-0.342,3.028-0.019,4.579   c0.312,1.529,1.091,2.992,2.345,4.372c1.246,1.358,2.628,2.286,4.131,2.743c1.505,0.455,3.023,0.587,4.562,0.382   c1.531-0.189,2.986-0.646,4.393-1.385c1.396-0.737,2.642-1.599,3.74-2.601c1.091-0.978,2.067-2.141,2.927-3.48   c0.861-1.322,1.455-2.751,1.787-4.251c0.342-1.501,0.347-3.022,0.026-4.564C104.02,70.358,103.24,68.902,101.994,67.533    M100.216,76.251c-0.198,1.001-0.562,1.959-1.094,2.884c-0.537,0.935-1.189,1.742-1.944,2.424   c-0.749,0.698-1.606,1.265-2.583,1.711c-0.971,0.444-1.96,0.714-2.967,0.834c-1.016,0.097-2.003,0-2.987-0.304   c-0.976-0.316-1.84-0.889-2.602-1.719c-0.751-0.849-1.251-1.761-1.465-2.754c-0.219-0.997-0.229-1.999-0.035-3.004   c0.201-0.996,0.567-1.949,1.109-2.876c0.529-0.924,1.176-1.729,1.934-2.413c0.746-0.695,1.606-1.262,2.591-1.709   c0.964-0.46,1.951-0.73,2.967-0.836c1.015-0.099,2.005-0.008,2.986,0.301c0.963,0.317,1.829,0.898,2.591,1.735   c0.762,0.828,1.252,1.75,1.471,2.738C100.403,74.266,100.418,75.261,100.216,76.251 M128.529,57.515l0.076,0.862l-0.685,0.737   l-11.367,7.061l-8.438-13.632c-0.256-0.402-0.064-0.802,0.571-1.205l-0.384-0.611l-5.883,3.645l0.385,0.622   c0.68-0.436,1.156-0.447,1.396-0.024l9.647,15.532c0.251,0.399,0.037,0.826-0.647,1.262l0.382,0.608l16.279-10.103l0.882-0.455   l0.684,0.38l0.622-0.38l-2.905-4.679L128.529,57.515z M150.791,36.743c-0.995-1.021-2.085-1.776-3.284-2.236   c-1.192-0.463-2.465-0.661-3.802-0.603c-1.347,0.075-2.706,0.396-4.08,0.94l-12.417,4.922l0.272,0.685   c0.562-0.222,0.946-0.117,1.128,0.326l6.749,17c0.171,0.449-0.017,0.774-0.599,1.004l0.273,0.671l12.422-4.938   c1.364-0.546,2.566-1.235,3.593-2.119c1.027-0.869,1.813-1.882,2.364-3.035c0.556-1.16,0.824-2.461,0.834-3.893   c0.011-1.423-0.321-2.981-0.979-4.655C152.609,39.138,151.78,37.792,150.791,36.743 M149.369,48.447   c-0.369,0.736-0.953,1.379-1.744,1.93c-0.791,0.548-1.78,1.057-2.958,1.515l-5.796,2.315l-5.262-13.257l5.802-2.288   c1.172-0.475,2.236-0.789,3.188-0.929c0.952-0.145,1.812-0.09,2.6,0.197c0.769,0.283,1.469,0.805,2.095,1.528   c0.625,0.742,1.192,1.746,1.707,3.05c0.519,1.306,0.802,2.423,0.855,3.393C149.898,46.858,149.747,47.705,149.369,48.447    M181.646,40.705l-0.236,0.827l-0.915,0.465l-13.197,2.565l-1.06-5.442l7.744-1.515c0.524-0.095,0.952-0.09,1.272,0.02   c0.332,0.108,0.551,0.476,0.658,1.092l0.716-0.162l-1.198-6.152l-0.716,0.143c0.124,0.602,0.048,1.012-0.214,1.207   c-0.262,0.207-0.647,0.347-1.182,0.445l-7.743,1.522l-0.952-4.896l12.796-2.496c0.551-0.11,0.963-0.11,1.209-0.015l0.465,0.584   l0.706-0.149l-1.016-5.209l-0.706,0.139l-0.204,0.765c-0.187,0.221-0.567,0.371-1.122,0.476l-18.011,3.524l0.139,0.708l0.524,0.091   l0.326,0.484l3.498,17.93l-0.107,0.584l-0.471,0.265l0.144,0.72l18.418-3.587l0.978-0.104l0.513,0.584l0.706-0.132l-1.064-5.416   L181.646,40.705z M207.243,24.099c0.701,0,1.049,0.236,1.049,0.717v12.797l-11.551-11.997c-0.54-0.52-0.808-0.901-0.808-1.117   l0.32-0.414v-0.716l-6.888-0.015l0.011,0.745c0.498-0.014,0.76,0.225,0.76,0.717v18.285c-0.005,0.477-0.262,0.714-0.771,0.714   l-0.004,0.718h5.956l0.011-0.713c-0.619-0.005-0.925-0.235-0.925-0.736V29.72l12.278,12.812l0.636,0.922l-0.514,0.366v0.713h6.519   l0.005-0.713c-0.519,0-0.774-0.235-0.78-0.719l0.017-18.285c0-0.481,0.245-0.717,0.764-0.717v-0.73h-6.085V24.099z M241.702,32.712   c0.396-0.205,0.872-0.335,1.418-0.38c0.539-0.047,1.123-0.036,1.76,0.046c0.641,0.082,1.24,0.203,1.802,0.351   c0.759,0.219,1.48,0.501,2.191,0.849c0.712,0.348,1.353,0.727,1.941,1.152c0.583,0.397,1.069,0.827,1.46,1.265l0.775,1.191   l0.059,0.97l0.348,0.288l4.031-4.121l-0.384-0.43l-0.835,0.011l-1.176-0.662c-0.449-0.351-1.011-0.734-1.679-1.173   c-0.675-0.449-1.481-0.901-2.435-1.393c-0.951-0.491-2.111-0.929-3.485-1.32c-1.605-0.436-3.049-0.624-4.342-0.597   c-1.295,0.047-2.418,0.264-3.349,0.632c-0.951,0.381-1.711,0.904-2.305,1.58c-0.588,0.674-0.994,1.408-1.214,2.201   c-0.337,1.186-0.384,2.221-0.139,3.094c0.251,0.854,0.689,1.597,1.3,2.232c0.619,0.64,1.379,1.171,2.267,1.617   c0.894,0.447,1.823,0.835,2.781,1.194c0.962,0.35,1.909,0.676,2.84,0.979c0.935,0.302,1.759,0.625,2.454,0.959   c0.7,0.336,1.235,0.707,1.615,1.109c0.363,0.411,0.47,0.922,0.299,1.508c-0.166,0.603-0.54,1.014-1.128,1.233   c-0.595,0.232-1.251,0.347-1.989,0.366c-0.722,0.019-1.449-0.03-2.167-0.17c-0.705-0.12-1.288-0.251-1.726-0.372   c-0.6-0.176-1.257-0.425-1.958-0.781c-0.722-0.35-1.374-0.734-2.006-1.169c-0.614-0.411-1.149-0.845-1.587-1.287l-0.813-1.21   l0.011-0.676l-0.332-0.29l-3.443,4.102l0.46,0.457l0.589-0.167l0.93,0.566c0.332,0.301,0.792,0.662,1.385,1.087   c0.595,0.439,1.358,0.878,2.306,1.322c0.951,0.446,2.16,0.873,3.636,1.283c1.059,0.299,2.229,0.538,3.503,0.708   c1.277,0.183,2.513,0.167,3.711-0.031c1.198-0.194,2.267-0.617,3.22-1.284c0.951-0.652,1.609-1.654,1.979-2.993   c0.325-1.161,0.363-2.174,0.112-3.022c-0.247-0.846-0.686-1.594-1.306-2.229c-0.609-0.63-1.369-1.174-2.256-1.629   c-0.894-0.457-1.824-0.856-2.781-1.222c-0.957-0.334-1.904-0.667-2.834-0.985c-0.931-0.316-1.732-0.658-2.434-1.014   c-0.689-0.369-1.219-0.747-1.588-1.207c-0.363-0.438-0.46-0.954-0.293-1.575L241.702,32.712z M269.087,58.81l6.86-14.478l6,2.85   l0.551,0.476l-0.011,0.83l0.647,0.315l2.417-5.094l-0.658-0.301l-0.637,0.545l-0.722-0.117l-16.153-7.662l-0.553-0.479l0.022-0.847   l-0.647-0.315l-2.422,5.104l0.658,0.309l0.631-0.549l0.732,0.128l6,2.853l-6.867,14.473l-0.433,0.395l-0.529-0.047l-0.316,0.644   l5.605,2.662l0.31-0.652C269.038,59.607,268.878,59.256,269.087,58.81 M294.316,51.25l0.364,0.538l-0.082,0.627l-0.604,0.509   l-0.962,0.528l-14.937,8.802l-1.042,0.512l-0.985-0.023l-0.395,0.588l4.732,3.21l0.4-0.606l-0.385-0.807   c0.129-0.188,0.472-0.441,1.018-0.759l2.801-1.555l8.134,5.483l-0.401,3.328c-0.053,0.476-0.166,0.826-0.31,1.051l-0.412,0.162   l-0.396-0.125l-0.405,0.596l5.871,3.968l0.406-0.595l-0.422-0.774l-0.102-0.833l2.234-18.264l0.118-0.942l0.251-0.615l0.562-0.326   l0.587,0.134l0.401-0.602l-5.625-3.814L294.316,51.25z M292.846,65.015l-5.941-3.995l7.331-4.091L292.846,65.015z M317.444,73.173   l4.881,4.506l0.385,0.63l-0.272,0.784l0.535,0.5l3.823-4.155l-0.54-0.493l-0.77,0.342l-0.652-0.342l-13.149-12.106l-0.38-0.625   l0.268-0.794l-0.535-0.499l-3.818,4.151l0.546,0.489l0.766-0.337l0.646,0.337l4.889,4.493l-10.86,11.79l-0.536,0.246l-0.485-0.217   l-0.487,0.548l4.551,4.212l0.497-0.545l-0.155-1.134L317.444,73.173z M344.918,97.841l-0.764,0.152l-0.937-0.773l-11.207-14.539   l-0.562,0.438l0.155,0.496l-0.294,0.509l-14.481,11.163l-0.562,0.138l-0.454-0.282l-0.577,0.444l11.449,14.866l0.539,0.828   l-0.31,0.733l0.443,0.57l4.38-3.368l-0.443-0.578l-0.846,0.163l-0.823-0.609l-8.208-10.659l4.406-3.367l4.807,6.231l0.567,1.139   c0.037,0.35-0.187,0.706-0.674,1.095l0.438,0.569l4.984-3.835l-0.454-0.583c-0.481,0.389-0.884,0.509-1.167,0.35l-0.946-0.846   l-4.817-6.248l3.956-3.042l7.968,10.332l0.546,1.068l-0.315,0.685l0.433,0.572l4.214-3.236L344.918,97.841z"/>
</g>
</svg>