<?xml version="1.0" encoding="utf-8"?>
<!-- Generator: Adobe Illustrator 20.0.0, SVG Export Plug-In . SVG Version: 6.00 Build 0)  -->
<svg version="1.1" id="Layer_1" xmlns="http://www.w3.org/2000/svg" xmlns:xlink="http://www.w3.org/1999/xlink" x="0px" y="0px"
	 width="400px" height="400px" viewBox="0 0 400 400" style="enable-background:new 0 0 400 400;" xml:space="preserve">
<style type="text/css">
	.st0{fill:#BEC0C2;}
	.st1{fill:#006BB6;}
	.st2{fill:#ED174C;}
	.st3{fill:#FFFFFF;}
</style>
<g>
	<path d="M23.3,178.4c-3.5,3.2-5.3,7.4-5.3,12.5v91.7c0,5.2,1.8,9.4,5.3,12.6c3.5,3.2,7.8,4.6,13,4.1c8.2-0.7,16.4-1.3,24.6-1.9
		v-17.3c-8.2,0.4-16.4,0.9-24.6,1.4c0-29.8,0-59.6,0-89.4c8.2,0.5,16.4,0.9,24.6,1.4V176c-8.2-0.6-16.4-1.2-24.6-1.9
		C31.2,173.7,26.9,175.1,23.3,178.4"/>
	<path d="M83,177.5c-6.1-0.4-12.2-0.8-18.3-1.2v120.9c13.3-0.9,26.7-1.7,40-2.4v-16.6c-7.2,0.3-14.5,0.5-21.7,0.8V177.5z"/>
	<path d="M108.3,294.6c6.2-0.3,12.5-0.6,18.7-0.8c0-38.1,0-76.1,0-114.2c-6.2-0.2-12.5-0.5-18.7-0.8V294.6z"/>
	<path d="M161.6,180.6c-10.3-0.2-20.6-0.5-30.9-0.9v113.9c6.1-0.2,12.3-0.4,18.4-0.6v-48.3c4.2,0,8.3,0,12.5,0
		c5.1,0,9.4-1.6,12.9-4.6c3.6-3.1,5.5-6.9,5.5-11.3v-31.9c0-4.4-1.8-8.2-5.5-11.3C171,182.3,166.6,180.7,161.6,180.6 M161.6,228.7
		c-4.2,0-8.3,0-12.5,0v-32.2c4.2,0.1,8.3,0.1,12.5,0.2V228.7z"/>
	<path d="M323.7,240.3c3.6-3.3,5.4-7.3,5.4-12.1v-34.2c0-4.7-1.8-8.7-5.4-11.7c-3.5-3.2-7.8-4.6-12.9-4.3
		c-10.3,0.6-20.5,1.1-30.8,1.5V294c6.1,0.2,12.2,0.5,18.4,0.8v-49.3c5.1,16.5,10.2,33.2,15.2,50.1c6.1,0.4,12.2,0.7,18.3,1.1
		c-5.3-17.8-10.7-35.2-16-52.3C318.8,243.7,321.5,242.4,323.7,240.3 M298.4,195.2c4.2-0.1,8.3-0.3,12.5-0.5c0,11.2,0,22.4,0,33.6
		c-4.1,0-8.3,0.1-12.5,0.1V195.2z"/>
	<path d="M214.5,180.9c-10.3,0.1-20.6,0.1-30.9,0v111.6c6.1-0.1,12.3-0.1,18.4-0.1v-47.8c4.2,0,8.3,0,12.5,0c5.1,0,9.4-1.5,12.9-4.6
		c3.6-3.1,5.5-6.9,5.5-11.4c0-10.7,0-21.3,0-32c0-4.4-1.8-8.1-5.5-11.2C223.9,182.4,219.6,180.9,214.5,180.9 M214.5,228.7
		c-4.2,0-8.3,0-12.5,0v-31.8c4.2,0,8.3,0,12.5,0V228.7z"/>
	<path d="M236.6,292.7c13.4,0.2,26.8,0.6,40.1,1.1v-16.3c-7.2-0.2-14.5-0.4-21.7-0.5v-32.3c4.2,0,11.6,0,15.7,0.1
		c0-5.4,0-10.8,0-16.2c-4.2,0-11.6,0-15.7,0.1v-32.3c7.3-0.1,14.5-0.3,21.7-0.5v-16.3c-13.4,0.5-26.8,0.9-40.1,1.1
		C236.6,218,236.6,255.4,236.6,292.7"/>
	<path d="M383.9,209.2v-18.4c0-5.1-1.8-9.2-5.4-12.4c-3.5-3.3-7.8-4.7-12.8-4.3c-5.1,0.4-10.3,0.8-15.4,1.2c-5.1,0.4-9.5,2.4-13,6.1
		c-3.5,3.5-5.3,7.7-5.3,12.4v34.3c0,4.8,1.8,8.9,5.3,12.2c3.5,3.3,7.9,5.1,13,5.1c5.1,0.1,10.3,0.1,15.4,0.2c0,11.9,0,23.8,0,35.8
		c-5.1-0.3-10.3-0.6-15.4-0.9V263c-6.1-0.2-12.2-0.4-18.3-0.6v17.2c0,4.8,1.8,9,5.3,12.5c3.5,3.6,7.9,5.5,13,5.9
		c5.1,0.4,10.3,0.8,15.4,1.2c5,0.4,9.3-0.9,12.8-4.1c3.6-3.2,5.4-7.4,5.4-12.6v-36.7c0-5.1-1.8-9.4-5.4-12.9
		c-3.5-3.6-7.8-5.3-12.8-5.2c-5.1,0.1-10.3,0.1-15.4,0.2v-35.1c5.1-0.3,10.3-0.6,15.4-0.9c0,6,0,11.9,0,17.9
		C371.8,209.7,377.9,209.4,383.9,209.2"/>
	<g>
		<path class="st0" d="M37.3,176.1c7.2,0.6,14.8,1.2,22.4,1.8v-0.7c-7.8-0.6-15.7-1.2-23.5-1.8c-0.6-0.1-1.1-0.1-1.7-0.1
			c-4.1,0-7.5,1.3-10.4,4c-3.3,3-4.9,6.9-4.9,11.6v91.7c0,3.9,1.1,7.2,3.2,9.9c-1.6-2.5-2.4-5.4-2.4-8.8v-91.7c0-4.8,1.7-8.7,5-11.8
			c2.9-2.8,6.4-4.1,10.5-4.1C36.2,176.1,36.7,176.1,37.3,176.1"/>
		<path class="st0" d="M81.7,179.4v-0.7c-5.3-0.3-10.6-0.7-15.9-1v118.2l0.8-0.1V178.4l0.1,0C71.6,178.7,76.6,179,81.7,179.4"/>
		<path class="st0" d="M125.8,181.5v-0.8c-5.3-0.2-10.8-0.4-16.2-0.7v113.2l0.8,0V180.9l0.1,0C115.5,181.1,120.6,181.3,125.8,181.5"
			/>
		<path class="st0" d="M162.6,182.6c3.7,0.1,7,1,9.9,2.8c-3.1-2.3-6.8-3.6-11-3.7c-9.8-0.2-19.8-0.5-29.6-0.8v111.4l0.8,0V181.8
			l0.1,0C142.7,182.2,152.8,182.4,162.6,182.6"/>
		<path class="st0" d="M313.2,179.9c3.3,0,6.2,0.8,8.8,2.4c-2.8-2.2-6-3.2-9.8-3.2c-0.4,0-0.8,0-1.2,0c-9.7,0.5-19.7,1-29.7,1.4
			v112.3l0.8,0V181.4l0.1,0c10-0.4,20.1-0.9,29.8-1.4C312.4,179.9,312.8,179.9,313.2,179.9"/>
		<path class="st0" d="M202.1,183c4.5,0,9.1,0,13.5,0h0.2c3.8,0,7,0.9,9.9,2.7c-3.1-2.4-6.7-3.5-11-3.5h-0.2c-4.5,0-9.1,0-13.5,0
			c-5.3,0-10.7,0-16.2-0.1v109.1l0.8,0V183l0.1,0C191.2,183,196.7,183,202.1,183"/>
		<path class="st0" d="M275.5,180.8c-12.5,0.5-25.1,0.8-37.7,1.1v109.7l0.8,0V182.7l0.1,0c12.1-0.2,24.5-0.6,36.7-1V180.8z"/>
		<path class="st0" d="M366.8,176.1c0.5,0,1.1-0.1,1.6-0.1c3,0,5.6,0.7,8,2.2c-2.6-2-5.6-3-9.1-3c-0.5,0-1.1,0-1.6,0.1
			c-5.1,0.4-10.3,0.8-15.4,1.2c-4.8,0.4-8.9,2.3-12.2,5.7c-3.3,3.3-5,7.1-5,11.5v34.3c0,3.6,1,6.7,3.1,9.4c-1.6-2.4-2.3-5.2-2.3-8.3
			v-34.3c0-4.5,1.6-8.3,5-11.7c3.4-3.5,7.5-5.4,12.4-5.8C356.5,177,361.7,176.6,366.8,176.1"/>
	</g>
	<path class="st1" d="M18.1,319.2c121.2-15.1,244.7-15.1,365.9,0v-6.4c-121.2-14-244.7-14-365.9,0C18.1,312.8,18.1,319.2,18.1,319.2
		z"/>
	<path class="st2" d="M62.2,336.1c91.6-23.7,186-23.7,277.6,0v-6c-91.6-23.1-185.9-23.1-277.6,0C62.2,332.1,62.2,334.1,62.2,336.1"
		/>
	<path class="st1" d="M164.7,163c-49-1.2-98-4.8-146.6-10.9v6.4c51.7,6,103.8,9.4,155.9,10.3C170.7,167,167.6,165.1,164.7,163"/>
	<path class="st1" d="M237.3,163c-2.9,2.2-6,4.1-9.3,5.7c52.1-0.9,104.2-4.3,155.9-10.3v-6.4C335.3,158.1,286.4,161.8,237.3,163"/>
	<path class="st2" d="M152.5,150.8c-30.2-2.7-60.4-7.9-90.3-15.6c0,2,0,4,0,6c31.6,8,63.4,13.2,95.4,15.6
		C155.8,154.9,154.1,152.9,152.5,150.8"/>
	<path class="st2" d="M249.5,150.8c-1.6,2.1-3.3,4.1-5.2,6c32-2.5,63.9-7.7,95.4-15.6v-6C309.9,142.9,279.8,148.1,249.5,150.8"/>
	<path class="st3" d="M144.6,114.3c0-31.1,25.2-56.4,56.4-56.4c31.1,0,56.4,25.2,56.4,56.4s-25.2,56.4-56.4,56.4
		C169.9,170.7,144.6,145.5,144.6,114.3"/>
	<path d="M201,57.9c-31.1,0-56.4,25.3-56.4,56.4c0,31.1,25.3,56.4,56.4,56.4c31.1,0,56.4-25.3,56.4-56.4
		C257.4,83.2,232.1,57.9,201,57.9 M241.8,83c6.5,8.4,10.1,18.3,10.6,28.9h-21.3C231.6,101.3,235.3,91.4,241.8,83 M160.2,83
		c6.5,8.4,10.1,18.3,10.6,28.9h-21.3C150.1,101.3,153.8,91.4,160.2,83 M160.2,145.6c-6.5-8.4-10.1-18.3-10.6-28.9h21.3
		C170.4,127.3,166.7,137.3,160.2,145.6 M203.5,165.7V151h-4.9v14.7c-13.4-0.6-25.8-6.4-35-16.2c7.5-9.4,11.8-20.7,12.3-32.7v-4.9
		c-0.5-12-4.8-23.3-12.3-32.7c9.2-9.8,21.6-15.6,35-16.2v14.6h4.9V62.9c13.4,0.6,25.8,6.4,35,16.2c-7.5,9.4-11.8,20.7-12.3,32.7v4.9
		c0.5,12,4.8,23.3,12.3,32.7C229.3,159.3,216.9,165.1,203.5,165.7 M241.8,145.6c-6.5-8.4-10.1-18.3-10.6-28.9h21.3
		C251.9,127.3,248.2,137.3,241.8,145.6"/>
	<polygon class="st2" points="188.4,90.7 188.4,137.7 213.6,137.7 213.6,131.3 195.2,131.3 195.2,90.7 	"/>
	<path class="st1" d="M222.1,106.5V87.1c0-2.9-1.2-4.1-4-4.1h-34.2c-2.8,0-4,1.2-4,4.1v54.5c0,2.9,1.2,4.1,4,4.1h34.2
		c2.9,0,4-1.2,4-4.1v-19.4h-6.8v17.5h-28.7V88.9h28.7v17.5L222.1,106.5L222.1,106.5z"/>
	<path class="st2" d="M213.6,129.5l0-38.8h-16.3l-0.2,38.8h6.5l0.1-12.1h3.3l0,12.1H213.6z M207,110.9h-3.3V97.2h3.3V110.9z"/>
</g>
</svg>
