<?xml version="1.0" encoding="utf-8"?>
<!-- Generator: Adobe Illustrator 20.0.0, SVG Export Plug-In . SVG Version: 6.00 Build 0)  -->
<svg version="1.1" id="Layer_2" xmlns="http://www.w3.org/2000/svg" xmlns:xlink="http://www.w3.org/1999/xlink" x="0px" y="0px"
	 width="400px" height="400px" viewBox="0 0 400 400" style="enable-background:new 0 0 400 400;" xml:space="preserve">
<style type="text/css">
	.st0{fill:#CE1141;}
</style>
<g>
	<path d="M238.8,163.6c0,0.3-0.1,0.6-0.1,0.9l-0.2,27.8l4.3-2.4l-0.1-14.6c2.9,0.1,7.5,0.7,7.4,3.1l0.1,11.5l4.1,2.4l-0.1-14.7
		c0-4.3-6.4-2.8-6.4-2.8s7.9-1.8,7.5-8.4c-0.3-3.9-4.5-5.9-12.1-5.1c-0.3,0-0.7,0.1-1,0.1c-0.3-2-0.8-4-1.7-6
		c-0.8,2.2-1.4,4.4-1.7,6.6c-4.6,0.8-7.8,2-7.8,2S234.8,163.6,238.8,163.6 M251,167.6c0.7,5.3-4.9,7-8.2,7.5l-0.1-10.6
		c0-0.2,0-0.5-0.1-0.7C246.8,164.2,250.7,165.2,251,167.6"/>
	<path d="M272.2,162.1h-5.3c0,0-5.6,0-5.6,5.4v17.3c0,5.4,5.6,5.4,5.6,5.4h5.3c0,0,5.6,0.1,5.6-5.4v-17.3
		C277.8,162.1,272.2,162.1,272.2,162.1 M273.4,184.1c0,2.5-1.5,4.1-3.9,4.1c-2.4,0-3.9-1.2-3.9-4.1v-15.9c0-2.9,1.6-4.1,3.9-4.1
		c2.3,0,3.9,1.7,3.9,4.1V184.1z"/>
	<path d="M294.8,162.1h-5.3c0,0-5.7,0-5.7,5.4v17.3c0,5.4,5.7,5.4,5.7,5.4h5.3c0,0,5.6,0.1,5.6-5.4v-2.2h-4.4v1.5
		c0,2.5-1.5,4.1-3.9,4.1c-2.4,0-3.9-1.2-3.9-4.1v-15.9c0-2.9,1.6-4.1,3.9-4.1c2.3,0,3.9,1.7,3.9,4.1v1.5h4.4v-2.3
		C300.5,162.1,294.8,162.1,294.8,162.1"/>
	<path d="M379.2,173.5c-3.6,0-4.8-0.1-4.8-3.2l0-2.8c0-2.3,0.5-3.6,4-3.6c3.7,0,4.1,1.8,4.1,4l0,1.5l4-2.1v-0.5
		c0-4.9-4.7-4.9-4.7-4.9h-6.2c0,0-5.3,0-5.3,4.5v4.3c0,3.8,0.2,5.1,5.6,5.1c4.1,0,6.7,0.1,6.7,3.7v4c0,3.2-0.5,4.6-3.9,4.6
		c-3.8,0-4.2-1.8-4.2-5.1l0-2l-4,1.7l0,3c0,4.3,5.2,4.3,5.2,4.3h6.2c0,0,4.9,0,4.9-5.5v-6C386.7,173.8,384.4,173.5,379.2,173.5"/>
	<path d="M333,183.9l0-6.7l1.5,0c3.4-0.2,6.5-0.7,10-2c-2.7-1.1-6.2-1.6-10-1.9l-1.5,0l0-4.6c-0.1-0.8,0.6-2.2,0.9-2.7
		c1.2-1.3,3.2-1.2,3.2-1.2l7.5,0c-0.6-3-5.6-2.5-5.6-2.5h-4.6c0,0-6,0-6,5.6l0,7.9l0,9c0,5.5,6,5.4,6,5.4h4.6c0,0,5.1,0.5,5.6-2.5
		l-7.6,0C336.9,187.6,333,187.9,333,183.9"/>
	<path d="M347.7,162.2v3.6h6.8l0,23.2l4.2,2.8l0-26h1.6c3.4-0.2,5.6-0.7,8.1-1.8c-2.5-1.2-4.7-1.6-8.1-1.8L347.7,162.2z"/>
	<polygon points="323.3,162.2 319.2,162.2 310.6,174.5 310.6,162.1 306.3,159.3 306.3,191.8 310.6,189.1 310.6,175.1 319.7,189.6
		324.4,189.6 314.6,174.1 	"/>
	<path d="M48.1,162.1h-5.3c0,0-5.7,0-5.7,5.4v17.3c0,5.4,5.7,5.4,5.7,5.4h5.3c0,0,5.7,0.1,5.7-5.4v-17.3
		C53.8,162.1,48.1,162.1,48.1,162.1 M49.4,184.1c0,2.5-1.5,4.1-3.9,4.1c-2.4,0-3.9-1.2-3.9-4.1v-15.9c0-2.9,1.6-4.1,3.9-4.1
		c2.3,0,3.9,1.7,3.9,4.1V184.1z"/>
	<path d="M71.8,164.7l0,10.7l0,8.8c0,4.1-3.3,4.1-3.3,4.1h-1.2c0,0-3.2-0.4-3.1-4.1v-8.7v-0.1l0.1-10.5l-4.4-2.7v13.4l0,9.5
		c0,4.9,5.3,5.2,5.3,5.2h5.5c0,0,5.8-0.2,5.8-5.2l0-10.4c0,0-0.1-12.4-0.1-12.5L71.8,164.7z"/>
	<path d="M146.6,192.1l3.7-2.7l0-15.8l12.6,16.7l0-21c-0.2-4.4-0.9-7.3-1.8-10.5c-1.1,4.1-1.7,6.5-1.9,10.5l0,9.3l-12.6-16.5
		L146.6,192.1z"/>
	<path d="M90.6,173.5c-3.6,0-4.8-0.1-4.8-3.2l0-2.8c0-2.3,0.5-3.6,4-3.6c3.7,0,4.1,1.8,4.1,4l0,1.5l4-2.1v-0.5
		c0-4.9-4.7-4.9-4.7-4.9H87c0,0-5.3,0-5.3,4.5v4.3c0,3.8,0.2,5.1,5.6,5.1c4.2,0,6.7,0.1,6.7,3.7v4c0,3.2-0.5,4.6-3.9,4.6
		c-3.8,0-4.3-1.8-4.3-5.1l0-2l-4,1.7l0,3c0,4.3,5.2,4.3,5.2,4.3h6.2c0,0,4.9,0,4.9-5.5v-6C98.1,173.8,95.8,173.5,90.6,173.5"/>
	<path d="M101.1,162.9v3.6h6.7l0,22.8l4.1,2.8l0-25.6h1.5c3.4-0.2,5.5-0.7,8-1.8c-2.4-1.2-4.6-1.6-8-1.8L101.1,162.9z"/>
	<path d="M134.7,190.1c0,0,5.7,0.1,5.7-5.4v-17.3c0-5.4-5.7-5.4-5.7-5.4h-5.3c0,0-5.7,0-5.7,5.4v17.3c0,5.4,5.7,5.4,5.7,5.4
		L134.7,190.1L134.7,190.1z M128.2,184.1v-15.9c0-2.9,1.6-4.1,3.9-4.1c2.3,0,3.9,1.7,3.9,4.1v15.9c0,2.5-1.5,4.1-3.9,4.1
		C129.7,188.3,128.2,187.1,128.2,184.1"/>
	<path d="M29.4,158.4c-1.1,2.9-1.6,5.4-1.8,8.4l0,7.5h-9.2l0-7.5c-0.2-3.1-0.7-5.6-1.8-8.4c-1,2.9-1.7,5.7-1.8,8.4l-0.1,25.7l4-2.2
		l-0.1-13.1h9.2l-0.1,13.1l4,2.2l-0.1-25.7C31.1,164.1,30.4,161.3,29.4,158.4"/>
	<path d="M226.1,199l0.2-17.9c0-11.1-15.3-10-20.3-9.3c5.9-1.1,25.9-6,24.7-24.3c-0.8-12.1-16-18.2-41.1-15.7
		c-0.4,0-0.8,0.1-1.2,0.1c-1.2-9-3-17.6-5.8-25.7c-3.5,10.8-5.5,19.4-6.7,27.4c-15.6,2.6-26.6,6.2-26.6,6.2s12.1-1.1,26-0.9
		c-1.6,16,0.1,31.1,0,60.1c-26.4-0.9-49.4,4.2-49.1,12c0.2,6.8,20.6,13.1,49.1,15.5l1.2,38.8l2-26.3c0.1-3.3,2.5-3,2.5-0.2l0.9,34.6
		l2.1-28.2c0-3.8,2.6-3.6,2.5-0.2l1,36.1l1.7-53.8c3.7,0.1,7.4,0.2,11.2,0.2c3.6,0,7.2-0.1,10.6-0.2l1.7,54.8l1.5-28.7
		c0-3.7,2.5-3.5,2.5-0.2l1.5,40.2l1.5-34.7c0.1-3.4,2.8-3.3,2.9,0l1.2,46l1.8-78.2v-0.1c28.9-2.4,49.8-8.7,49.8-15.5
		C275.2,203.5,252.7,197.7,226.1,199 M214.8,151.1c2,15.2-13.4,20.2-24.5,21.8c0.1-10.9-0.1-22.2-1.1-33.3
		C202.3,140.8,213.8,144,214.8,151.1 M141,208.8c0-4.6,17.1-7.1,34.2-9.7c0,5.5-0.1,11.5-0.3,18.1l0.1,2.5
		C154.7,217.9,141,213.9,141,208.8 M189.5,220.6l0.1-4.4c-0.3-11.6,0.4-26.3,0.6-41.9c9.4,1,21.4,3.5,21.2,10.2l-0.3,36.2
		c-3.5,0.1-7,0.2-10.6,0.2C196.7,220.8,193,220.7,189.5,220.6 M225.8,219.8l0.2-20.6c18.9,2.4,34.4,5.1,34.4,9.6
		C260.5,213.9,246.3,217.9,225.8,219.8"/>
	<path class="st0" d="M239.8,162.6c0,0.3-0.1,0.6-0.1,0.9l-0.2,27.8l4.3-2.4l-0.1-14.6c2.9,0.1,7.5,0.7,7.4,3.1l0.1,11.5l4.1,2.4
		l-0.1-14.7c0-4.3-6.4-2.8-6.4-2.8s7.9-1.8,7.5-8.4c-0.3-3.9-4.5-5.9-12.1-5.1c-0.3,0-0.7,0.1-1,0.1c-0.3-2-0.8-4-1.7-6
		c-0.8,2.2-1.4,4.4-1.7,6.6c-4.6,0.8-7.8,2-7.8,2S235.8,162.6,239.8,162.6 M252,166.6c0.7,5.3-4.9,7-8.2,7.5l-0.1-10.6
		c0-0.2,0-0.5-0.1-0.7C247.9,163.2,251.7,164.2,252,166.6"/>
	<path class="st0" d="M273.2,161.1h-5.3c0,0-5.7,0-5.7,5.4v17.3c0,5.4,5.7,5.4,5.7,5.4h5.3c0,0,5.6,0.1,5.6-5.4v-17.3
		C278.8,161.1,273.2,161.1,273.2,161.1 M274.4,183.1c0,2.5-1.5,4.1-3.9,4.1c-2.4,0-3.9-1.2-3.9-4.1v-15.9c0-2.9,1.6-4.1,3.9-4.1
		c2.3,0,3.9,1.7,3.9,4.1V183.1z"/>
	<path class="st0" d="M295.8,161.1h-5.3c0,0-5.6,0-5.6,5.4v17.3c0,5.4,5.7,5.4,5.7,5.4h5.3c0,0,5.6,0.1,5.6-5.4v-2.2h-4.4v1.5
		c0,2.5-1.5,4.1-3.9,4.1c-2.4,0-3.9-1.2-3.9-4.1v-15.9c0-2.9,1.6-4.1,3.9-4.1c2.3,0,3.9,1.7,3.9,4.1v1.5h4.4v-2.3
		C301.5,161.1,295.8,161.1,295.8,161.1"/>
	<path class="st0" d="M380.2,172.5c-3.6,0-4.8-0.1-4.8-3.2l0-2.8c0-2.3,0.5-3.6,4-3.6c3.7,0,4.1,1.8,4.1,4l0,1.5l4-2.1v-0.5
		c0-4.9-4.7-4.9-4.7-4.9h-6.2c0,0-5.3,0-5.3,4.5v4.3c0,3.8,0.2,5.1,5.6,5.1c4.2,0,6.7,0.1,6.7,3.7v4c0,3.2-0.5,4.6-3.9,4.6
		c-3.8,0-4.2-1.8-4.2-5.1l0-2l-4,1.7l0,3c0,4.3,5.2,4.3,5.2,4.3h6.2c0,0,4.9,0,4.9-5.5v-6C387.7,172.8,385.4,172.5,380.2,172.5"/>
	<path class="st0" d="M334,182.9l0-6.7l1.5,0c3.4-0.2,6.5-0.7,10-2c-2.7-1.1-6.2-1.6-10-1.9l-1.5,0l0-4.6c-0.1-0.8,0.6-2.2,0.9-2.7
		c1.2-1.3,3.2-1.2,3.2-1.2l7.5,0c-0.6-3-5.6-2.5-5.6-2.5h-4.6c0,0-6,0-6,5.6l0,7.9l0,9c0,5.5,6,5.4,6,5.4h4.6c0,0,5.1,0.5,5.6-2.5
		l-7.6,0C337.9,186.6,334,186.9,334,182.9"/>
	<path class="st0" d="M348.7,161.2v3.6h6.8l0,23.2l4.2,2.8l0-26h1.6c3.4-0.2,5.6-0.7,8.1-1.8c-2.5-1.2-4.7-1.6-8.1-1.8L348.7,161.2z
		"/>
	<polygon class="st0" points="324.3,161.2 320.2,161.2 311.6,173.5 311.6,161 307.3,158.3 307.3,190.8 311.6,188.1 311.6,174
		320.7,188.5 325.4,188.5 315.6,173.1 	"/>
	<path class="st0" d="M49.2,161.1h-5.3c0,0-5.7,0-5.7,5.4v17.3c0,5.4,5.7,5.4,5.7,5.4h5.3c0,0,5.7,0.1,5.7-5.4v-17.3
		C54.8,161.1,49.2,161.1,49.2,161.1 M50.4,183.1c0,2.5-1.5,4.1-3.9,4.1c-2.4,0-3.9-1.2-3.9-4.1v-15.9c0-2.9,1.6-4.1,3.9-4.1
		c2.3,0,3.9,1.7,3.9,4.1V183.1z"/>
	<path class="st0" d="M72.8,163.7l0,10.7l0,8.7c0,4.1-3.3,4.1-3.3,4.1h-1.2c0,0-3.2-0.4-3.2-4.1l0-8.7v-0.1l0.1-10.5l-4.4-2.7v13.4
		l0,9.5c0,4.9,5.3,5.2,5.3,5.2h5.5c0,0,5.8-0.2,5.8-5.2l0-10.4c0,0-0.1-12.4-0.1-12.5L72.8,163.7z"/>
	<path class="st0" d="M147.7,191l3.7-2.7l0-15.8l12.6,16.7l0-21c-0.2-4.4-0.9-7.3-1.8-10.5c-1.1,4.1-1.7,6.5-1.9,10.5l0,9.3
		l-12.6-16.5L147.7,191z"/>
	<path class="st0" d="M91.6,172.5c-3.6,0-4.8-0.1-4.8-3.2l0-2.8c0-2.3,0.5-3.6,4-3.6c3.7,0,4.1,1.8,4.1,4l0,1.5l4-2.1v-0.5
		c0-4.9-4.7-4.9-4.7-4.9H88c0,0-5.3,0-5.3,4.5v4.3c0,3.8,0.2,5.1,5.6,5.1c4.2,0,6.7,0.1,6.7,3.7v4c0,3.2-0.5,4.6-3.9,4.6
		c-3.8,0-4.2-1.8-4.2-5.1l0-2l-4,1.7l0,3c0,4.3,5.2,4.3,5.2,4.3h6.2c0,0,4.9,0,4.9-5.5v-6C99.1,172.8,96.8,172.5,91.6,172.5"/>
	<path class="st0" d="M102.1,161.9v3.6h6.7l0,22.8l4.1,2.8l0-25.6h1.5c3.4-0.2,5.5-0.7,8-1.8c-2.4-1.2-4.6-1.6-8-1.8L102.1,161.9z"
		/>
	<path class="st0" d="M135.7,189.1c0,0,5.7,0.1,5.7-5.4v-17.3c0-5.4-5.7-5.4-5.7-5.4h-5.3c0,0-5.7,0-5.7,5.4v17.3
		c0,5.4,5.7,5.4,5.7,5.4L135.7,189.1L135.7,189.1z M129.2,183.1v-15.9c0-2.9,1.6-4.1,3.9-4.1c2.3,0,3.9,1.7,3.9,4.1v15.9
		c0,2.5-1.5,4.1-3.9,4.1C130.7,187.2,129.2,186,129.2,183.1"/>
	<path class="st0" d="M30.4,157.4c-1.1,2.9-1.6,5.4-1.8,8.5l0,7.5h-9.2l0-7.5c-0.2-3.1-0.7-5.6-1.8-8.5c-1,2.9-1.7,5.7-1.8,8.5
		l-0.1,25.7l4-2.2l-0.1-13.1h9.2l-0.1,13.1l4,2.2l-0.1-25.7C32.1,163.1,31.4,160.3,30.4,157.4"/>
	<path class="st0" d="M227.3,197.7l0.2-17.9c0-11.1-15.3-10-20.3-9.3c5.9-1.1,25.9-6,24.7-24.3c-0.8-12.1-16-18.2-41.1-15.7
		c-0.4,0-0.8,0.1-1.2,0.1c-1.2-9-3-17.6-5.8-25.7c-3.5,10.8-5.5,19.4-6.7,27.4c-15.6,2.6-26.6,6.2-26.6,6.2s12.1-1.1,26-0.9
		c-1.6,16,0.1,31.1,0,60.1c-26.4-0.9-49.4,4.2-49.1,12c0.2,6.8,20.6,13.1,49.1,15.5l1.2,38.8l2-26.3c0.1-3.3,2.5-3,2.5-0.2l0.9,34.6
		l2.1-28.2c0-3.8,2.6-3.6,2.5-0.2l1,36.1l1.7-53.8c3.7,0.1,7.4,0.2,11.2,0.2c3.6,0,7.2-0.1,10.6-0.2l1.7,54.8l1.5-28.7
		c0-3.6,2.5-3.5,2.5-0.2l1.5,40.2l1.5-34.7c0.1-3.4,2.8-3.3,2.9,0l1.2,46l1.8-78.2l0-0.1c28.9-2.4,49.8-8.7,49.8-15.5
		C276.5,202.3,253.9,196.5,227.3,197.7 M176.2,218.5c-20.3-1.8-34-5.9-34-11c0-4.6,17.1-7.1,34.2-9.7c0,5.5-0.1,11.5-0.3,18.1
		L176.2,218.5z M190.4,138.3c13.1,1.3,24.7,4.4,25.6,11.5c2,15.2-13.4,20.2-24.5,21.8C191.6,160.7,191.4,149.4,190.4,138.3
		 M212.4,219.4c-3.4,0.1-7,0.2-10.6,0.2c-3.8,0-7.4-0.1-11-0.2l0.1-4.4c-0.3-11.6,0.4-26.3,0.6-41.9c9.4,1,21.4,3.5,21.2,10.2
		L212.4,219.4z M227.1,218.5l0.2-20.6c18.9,2.4,34.4,5.1,34.4,9.6C261.7,212.6,247.6,216.7,227.1,218.5"/>
</g>
</svg>
