<?xml version="1.0" encoding="UTF-8"?>
<!-- Generator: Adobe Illustrator 16.2.1, SVG Export Plug-In . SVG Version: 6.00 Build 0)  -->
<!DOCTYPE svg PUBLIC "-//W3C//DTD SVG 1.1//EN" "http://www.w3.org/Graphics/SVG/1.1/DTD/svg11.dtd">
<svg version="1.1" id="Layer_3" xmlns="http://www.w3.org/2000/svg" xmlns:xlink="http://www.w3.org/1999/xlink" x="0px" y="0px" width="400px" height="400px" viewBox="0 0 400 400" enable-background="new 0 0 400 400" xml:space="preserve">
<g>
	<path fill="#00285E" d="M116.448,256.797v49.943c2.822,0,31.973-0.024,31.973-0.024v-6.166l-25.72,0.055v-45.601h25.72v-6.472   l-34.992,0.057L116.448,256.797z M188.838,256.797c0,0-3.792-0.016-8.524-0.023v50.141h5.345v-44.417l1.92-0.041   c1.104,0,2.003,1.192,2.003,2.678l-0.028,41.829h5.716v-42.238C195.27,259.271,192.282,256.797,188.838,256.797 M162.31,306.963   h5.396v-44.466h4.479v44.417h5.558v-50.151c-6.698-0.022-14.181-0.044-15.432-0.052V306.963z M94.871,241.357   c0,0-4.254-0.019-9.533-0.03v65.238h6.02v-58.791l2.115-0.043c1.221,0,2.211,1.316,2.211,2.944l-0.024,55.949h6.649v-56.396   C102.309,244.404,98.849,241.357,94.871,241.357 M125.274,276.409h16.789v-5.894h-11.342v-6.966h17.7v-5.977h-23.147V276.409z    M189.726,248.812h-38.753l3.259,8.799v49.352h5.499v-52.835l29.107,0.088c4.832,0,9.024,3.613,9.024,10.509v42.238h5.173   l-0.036-45.816C202.999,253.38,196.402,248.812,189.726,248.812 M264.906,271.432h-6.867v-23.045l-5.316,0.016v27.474h18.109   v-27.495h-5.926V271.432z M130.722,285.2h11.342v-6.221h-16.789v19.054c2.062-0.006,19.389-0.047,23.147-0.055v-5.508l-17.7-0.027   V285.2z M65.484,306.625h6.08v-58.851h4.937v58.791h6.267v-65.248c-7.527-0.022-16.009-0.047-17.283-0.047V306.625z    M95.844,232.687H53.121l3.594,9.709v64.229h6.193V238.69c0,0,31.963,0.091,31.965,0.091c5.255,0,10.006,3.934,10.006,11.447   v56.396h5.621l-0.031-60.343C110.469,237.725,103.202,232.687,95.844,232.687 M293.835,248.522v58.572h6.3l-0.006-58.572H293.835z    M284.949,258.07l0.017,49.024h6.299v-58.572h-9.817L284.949,258.07z M320.581,276.477c5.472,0,4.62,3.477,4.62,7.077v6.084   c0,1.458-0.967,2.626-2.162,2.626h-0.883c-1.194,0-2.162-1.168-2.162-2.626v-7.173h-6.607v6.344c0,3.876,0,9.732,8.899,9.732   c9.249,0,9.604-6.96,9.616-7.22v-13.311c0-6.306-3.287-6.872-8.65-7.266c-1.599-0.12-3.244-0.245-4.704-0.65   c-6.294-1.729-7.075-6.113-7.373-7.763c-0.198-1.091-0.122-9.75-0.095-12.526c-0.015-0.284-0.25-4.308,2.526-7.342   c1.951-2.14,4.849-3.227,8.612-3.227c3.998,0,7.099,1.183,9.207,3.499c2.592,2.839,2.859,6.528,2.859,7.949   c0,0.265-0.012,0.425-0.012,0.512v5.543h6.77v-9.392c0-8.925-7.173-14.853-16.558-14.853h-3.051c-9.239,0-17.59,4.847-17.59,15.068   v13.677C303.845,271.319,313.192,276.477,320.581,276.477 M227.971,248.836l-22.81,0.006l3.158,8.731V307.1h5.181v-53.063h13.607   c4.873,0,9.81,3.45,9.81,9.618v6.288c0,6.168-4.937,9.4-9.81,9.4h-11.038V307.1h5.896v-23.035c0,0,7.306-0.143,7.325-0.143   c8.112,0,12.49-7.188,12.49-13.974l0.151-8.631C241.933,253.217,234.737,248.836,227.971,248.836 M326.867,262.587l-2.875-0.142   c-2.635,0-4.152-1.134-4.152-3.867v-7.764c0-1.451,0.973-2.625,2.165-2.625h0.882c1.19,0,2.167,1.174,2.167,2.625v5.926h6.706   v-5.677c0.004-0.041,0.259-3.938-2.192-6.613c-1.62-1.771-4.088-2.664-7.349-2.664c-3.022,0-5.293,0.803-6.75,2.39   c-2.074,2.25-1.876,5.422-1.876,5.455l0.004,0.054v0.055c-0.055,5.344-0.055,11.421,0.055,12.136   c0.251,1.446,0.796,4.448,5.557,5.765c1.222,0.343,2.685,0.447,4.23,0.562c4.63,0.343,10.978,0.812,10.978,9.809v13.344   c0,0.102-0.389,9.739-12.13,9.739c-11.414,0-11.414-8.615-11.414-12.285v-6.344h-6.878v9.367c0,11.152,8.488,15.399,16.301,15.399   h3.979c9.807,0,16.933-6.043,16.933-15.763V276.93C341.206,266.351,334.088,262.587,326.867,262.587 M244.156,257.436v50.021h6   v-59.049l-9.21,0.017L244.156,257.436z M234.346,269.942v-6.288c0-4.694-3.755-7.042-7.238-7.042h-11.038v20.158h11.038   C230.591,276.771,234.346,274.632,234.346,269.942 M221.966,271.455v-9.934h3.652c1.831,0,3.315,1.794,3.315,3.993v1.961   c0,2.231-1.455,3.979-3.315,3.979H221.966z M273.406,307.456h5.399v-59.075h-5.399V307.456z M252.723,307.456h5.316v-23.287h6.867   v23.287h5.926v-29.015h-18.109V307.456z"/>
	<path fill="#6189B9" d="M159.731,306.963v-52.835l29.108,0.088c4.828,0,9.025,3.613,9.025,10.509v42.238h-2.592v-42.238   c0-5.453-2.992-7.928-6.434-7.928c0,0-3.793-0.016-8.525-0.023v50.141h-2.567v-50.151c-6.705-0.022-14.187-0.044-15.439-0.052   v50.252H159.731z M148.42,257.573h-23.146v18.836h16.789v2.57h-16.789v19.054c2.06-0.006,19.386-0.047,23.146-0.055v2.571   l-25.717,0.055v-45.601h25.717V257.573z M62.907,306.625V238.69c0,0,31.962,0.091,31.967,0.091c5.254,0,10.003,3.934,10.003,11.447   v56.396h-2.568v-56.396c0-5.824-3.458-8.871-7.44-8.871c0,0-4.254-0.019-9.531-0.03v65.238h-2.571v-65.248   c-7.526-0.022-16.009-0.047-17.287-0.047v65.354H62.907z M291.265,248.522h2.57v58.572h-2.57V248.522z M213.5,307.1v-53.063h13.607   c4.875,0,9.804,3.45,9.804,9.618v6.288c0,6.168-4.929,9.4-9.804,9.4h-11.038V307.1H213.5z M313.383,282.465v6.344   c0,3.876,0,9.732,8.903,9.732c9.249,0,9.604-6.96,9.613-7.22v-13.311c0-6.306-3.282-6.872-8.647-7.266   c-1.599-0.12-3.244-0.245-4.704-0.65c-6.294-1.729-7.078-6.113-7.375-7.763c-0.196-1.091-0.12-9.75-0.093-12.526   c-0.017-0.284-0.245-4.308,2.524-7.342c1.953-2.14,4.853-3.227,8.614-3.227c3.998,0,7.096,1.183,9.205,3.499   c2.588,2.839,2.865,6.528,2.865,7.949c0,0.265-0.016,0.425-0.016,0.512v5.543h-2.514v-5.677c0.004-0.041,0.259-3.938-2.192-6.613   c-1.62-1.771-4.088-2.664-7.349-2.664c-3.02,0-5.291,0.803-6.752,2.39c-2.072,2.25-1.874,5.422-1.874,5.455l0.004,0.054v0.055   c-0.055,5.344-0.055,11.421,0.049,12.136c0.259,1.446,0.802,4.448,5.562,5.765c1.229,0.343,2.685,0.447,4.23,0.562   c4.63,0.343,10.978,0.812,10.978,9.809l-0.002,13.344c0,0.102-0.387,9.739-12.128,9.739c-11.414,0-11.414-8.615-11.414-12.285   v-6.344H313.383z M234.34,269.942v-6.288c0-4.694-3.749-7.042-7.232-7.042h-11.038v20.158h11.038   C230.591,276.771,234.34,274.632,234.34,269.942 M250.161,307.456v-59.049l2.56-0.005v27.474h18.111v-27.495h2.571v59.075h-2.571   v-29.015h-18.111v29.015H250.161z"/>
	<path fill="#00285E" d="M299.766,70.577c-0.922-1.4-1.854-2.736-2.789-4.044c23.324-38.226-31.702-67.527-51.62-35.09   c-24.526-4.52-45.029,4.455-47.792,5.737c-2.753-1.273-23.006-10.131-47.301-5.83C126.208-2.492,76.57,32.494,98.458,66.091   c-1.045,1.443-2.086,2.929-3.103,4.486c-31.114,47.333-7.763,79.42-7.763,79.42l4.788-4.782c0,0,6.797,33.007,42.717,54.69   l1.294-7.12c22.115,23.619,42.611,23.08,61.687,44.656c17.647-20.438,43.271-20.438,63.236-45.949v9.054   c36.894-17.954,40.291-56.785,40.291-56.785l3.399,6.305C305.005,150.065,330.876,117.911,299.766,70.577"/>
	<path fill="#FDB927" d="M221.551,104.105c1.73-0.63,4.776,1.196,6.403,4.368c7.486-2.162,7.08-12.25,7.042-12.954   C229.06,97.823,224.16,101.797,221.551,104.105"/>
	<path fill="#6189B9" d="M197.864,152.833c2.064-0.322,34.827-1.51,14.75,18.854C226.608,153.161,201.217,153.017,197.864,152.833    M254.555,47.117c0,0,7.369-18.426,29.952-13.98c0,0-20.733-13.644-35.16,11.024c0,0-20.476-9.713-51.341,3.633   c0,0-29.24-10.196-51.286-4.419c0,0-12.861-22.311-30.966-13.119c-18.103,9.18-8.656,30.436-5.506,35.947   c0,0-30.001,30.566-18.72,68.357l6.036-7.528c0,0,8.617,41.154,30.853,54.126l1.337-10.117c0,0,23.214,28.011,50.514,39.908   c2.595,1.218,17.08,8.406,17.527,11.949v-19.597c0,0-18.955,1.575-23.959-7.167c-3.389-5.939-25.164-44.784-14.405-85.465   c0,0-10.471-1.564-12.446-19.238c0,0-7.815-3.803-17.524-3.014c0,0,17.367-5.448,33.639,0.852   c16.268,6.299,20.624,22.333,31.651,15.249l3.257-45.177l3.107,45.177c11.024,7.085,15.383-8.95,31.649-15.249   c16.272-6.3,33.64-0.852,33.64-0.852s-6.941-4.894-18.109-7.125c-9.312-1.864-23.006,4.12-23.006,4.12s1.889-12.812,8.109-19.648   C238.73,59.89,250.82,58.592,254.555,47.117 M114.144,62.679c-0.649-6.149,7.117-12.245,7.117-12.245   c-3.2-3.309-8.798-0.441-8.798-0.441c5.078-9.928,16.449-5.077,16.449-5.077c-4.31-5.272-13.439-4.943-13.439-4.943   c11.295-11.194,24.925,5.917,24.925,5.917C128.257,48.637,114.144,62.679,114.144,62.679 M235,95.52v0.002   c-0.086,0.033-0.163,0.068-0.245,0.096C234.837,95.59,234.914,95.547,235,95.52 M225.956,110.072   c18.114,48.785-4.97,80.126-4.97,80.126c14.224-37.231,5.079-68.196-1.141-79.689c-3.196,0.312-7.031,0.131-7.031,0.131   s4.802-2.97,7.912-5.798c0.246-0.22,0.529-0.472,0.84-0.752c-0.004,0.005-0.01,0.011-0.016,0.016   c1.73-0.63,4.776,1.193,6.403,4.368c7.473-2.157,7.08-12.212,7.046-12.952c2.174-0.848,4.491-1.477,6.89-1.703   C241.89,93.818,240.165,109.851,225.956,110.072"/>
	<path fill="#FDB927" d="M161.679,95.494c-0.04,0.746-0.428,10.822,7.044,12.979c1.603-3.118,4.48-4.927,6.224-4.39   C170.949,100.978,165.938,97.522,161.679,95.494"/>
	<path fill="#B8CFE9" d="M197.8,198.615c-22.857,0-19.776-5.036-19.776-5.036c2.461-1.539,18.467-1.853,19.744-1.853   c1.269,0,17.339,0.314,19.798,1.853C217.565,193.58,220.65,198.615,197.8,198.615 M161.7,95.503c-0.006,0-0.01-0.006-0.02-0.006   C161.689,95.497,161.692,95.503,161.7,95.503 M197.794,177.455v9.272l-6.31,0.336c-6.609,0.196-15.261,2.882-15.261,2.882   c-16.033-39.713-7.145-69.768-2.864-80.495c-15.894,3.445-18.468-15.631-18.468-15.631c1.643-0.341,4.063,0.38,6.786,1.679   c-0.037,0.746-0.429,10.819,7.043,12.977c1.604-3.115,4.476-4.925,6.219-4.396c1.185,0.92,2.29,1.81,3.25,2.626   c10.808,9.094,19.204,7.246,19.204,7.246s0.117,34.623,0.117,38.875c0,0-31.281-2.448-14.472,18.858c0,0,2.694-7.787,5.565-5.331   C192.587,169.763,197.794,176.713,197.794,177.455"/>
	<path fill="#6189B9" d="M127.771,342.261l-0.368,1.012c-0.421,1.151-1.517,1.776-2.51,1.416l-2.025-0.741l1.863-5.127l2.033,0.744   C127.735,339.912,128.188,341.129,127.771,342.261 M130.396,333.467l-12.183-4.434l0.026,5.117l-9.299,25.566l7.231,2.637   l4.325-11.895l2.2,0.791c0.625,0.235,0.884,1.07,0.592,1.881l-3.794,10.435l7.144,2.606l3.918-10.756   c0.616-1.698,0.424-3.259-0.534-4.4c0,0,2.42-0.421,3.72-3.99l1.696-4.428C136.965,338.418,133.98,334.767,130.396,333.467"/>
	<path fill="#6189B9" d="M279.548,336.741l-2.515-7.244l-18.035,6.288l3.032,3.725l9.017,25.92   c1.456-0.499,16.549-5.767,16.549-5.767l-2.571-7.171l-9.13,3.158c-0.249-0.737-1.479-4.258-1.479-4.258l5.845-2.033l-2.544-7.316   l-5.847,2.029l-1.443-4.157L279.548,336.741z"/>
	<polygon fill="#6189B9" points="229.034,366.701 226.687,342.179 217.059,343.096 219.455,347.992 222.01,374.62 240.869,372.864    240.187,365.634  "/>
	<polygon fill="#6189B9" points="145.067,343.154 144.408,337.68 153.632,339.656 147.152,370.956 139.618,369.347  "/>
	<polygon fill="#6189B9" points="244.898,344.477 242.081,339.738 251.319,337.806 258.041,369.057 250.495,370.631  "/>
	<polygon fill="#6189B9" points="181.691,343.379 162.541,341.37 161.685,350.257 167.04,348.898 170.137,349.226 159.208,373.123    178.365,375.04 179.026,367.791 170.78,366.928  "/>
	<polygon fill="#6189B9" points="208.286,343.805 189.017,343.707 189.051,352.632 194.243,350.754 197.371,350.765    188.857,375.635 208.131,375.635 208.062,368.359 199.771,368.325  "/>
	<path fill="#6189B9" d="M303.345,339.979l1.513,2.272c0.359,0.544,0.291,1.221-0.156,1.519l-0.97,0.641   c-0.443,0.302-1.102,0.1-1.454-0.444l-1.783-2.683l-5.977,3.962l2.326,3.503c2.759,4.168,6.986,3.649,9.908,1.711l2.117-1.409   c3.668-2.434,4.822-6.455,2.419-10.082l-3.609-5.431c-2.623-3.952-6.213-3.592-8.908-1.807l-1.745,1.084   c-0.984,0.652-1.83,0.607-2.508-0.419l-1.924-2.898c-0.355-0.537-0.293-1.218,0.16-1.511l0.967-0.648   c0.441-0.292,1.095-0.096,1.453,0.452l1.471,2.207l5.971-3.964l-2.327-3.507c-2.212-3.333-6.359-3.766-9.859-1.446l-1.781,1.179   c-3.452,2.293-5.37,6.175-2.837,9.995l3.396,5.11c2.495,3.76,7.266,3.364,10.023,1.532   C301.75,337.229,302.449,338.632,303.345,339.979"/>
	<path fill="#6189B9" d="M98.827,348.739c-2.596,3.854-7.196,4.053-10.316,1.949l-3.23-2.172c-3.117-2.104-4.659-6.439-2.065-10.288   l10.486-15.681c2.581-3.858,7.178-4.077,10.302-1.987l3.24,2.165c3.131,2.089,4.691,6.417,2.107,10.288l-2.085,3.114l-6.369-4.278   l1.292-1.929c0.489-0.733,0.467-1.607-0.047-1.955l-1.025-0.685c-0.517-0.347-1.336-0.03-1.82,0.709c0,0-0.516,0.771-1.302,1.944   c-1.419,2.123-7.643,11.425-7.643,11.425c-0.498,0.726-0.481,1.602,0.035,1.951l1.026,0.691c0.512,0.338,1.331,0.032,1.822-0.699   l2.359-3.479l-1.109-0.751l2.973-4.428l7.502,5.012L98.827,348.739z"/>
</g>
</svg>