<?xml version="1.0" encoding="utf-8"?>
<!-- Generator: Adobe Illustrator 20.0.0, SVG Export Plug-In . SVG Version: 6.00 Build 0)  -->
<svg version="1.1" id="Layer_2" xmlns="http://www.w3.org/2000/svg" xmlns:xlink="http://www.w3.org/1999/xlink" x="0px" y="0px"
	 width="400px" height="400px" viewBox="0 0 400 400" style="enable-background:new 0 0 400 400;" xml:space="preserve">
<style type="text/css">
	.st0{fill:#FFFFFF;}
	.st1{fill:#C4CED4;}
	.st2{fill:#007DC5;}
</style>
<path class="st0" d="M353.3,203.2c1.9-4.6,9.1-22.4,9.1-22.4L332,197.7c-0.1,0.1-9,5-21.9,10.5c6.5-16.1,12.2-32.4,17.8-53.9
	c10.7-40.8,16.5-85.8,16.7-87.6l2.3-18.1c0,0-57.2,15.8-62.7,17.3c-20.3-24.5-51.6-39-84.5-39c-33,0-64.4,14.6-84.7,39.3
	C109.4,64.5,52,48.5,52,48.5l2.4,18.2c0.1,0.5,6.1,46.6,17.4,88.1c5.5,20.2,11.6,36.5,17.9,52.1c-13.7-5.8-25.2-11.2-25.4-11.3
	l-28.2-13.4c0,0,6.7,16.9,8.6,21.6c-0.4-0.1-10.2-3.9-10.2-3.9l9.4,25.3c0,0,0,0,0-0.1c0.6,1.8,4.6,12.6,35.1,94.3l4.2,11.2
	c0,0,6.8-2.2,8.8-2.8c1.7,4.5,6.1,16.3,6.1,16.3l12.3-6.3c9.4-4.8,29.5-12.9,45.7-15.5c19.3,26.4,34.4,40.1,35.1,40.7l8.4,7.5
	l8.2-7.6c0.7-0.6,15.9-14.9,34.8-40.5c18.1,2.4,33.6,9.7,41.5,14l12,6.6l5.2-12.6c0,0,0.6-1.5,1.3-3.2c1,0.3,6.8,2.3,6.8,2.3
	l4.4-11.2c0.9-2.2,20.3-47.5,39-91.3l12.5-29.2C365.5,197.9,353.3,203.2,353.3,203.2"/>
<path d="M334.5,202.1c-0.2,0.1-14.6,8-33.6,15.2c8.6-20.3,15.4-38.4,22.2-64.3c10.7-40.8,16.5-86.5,16.6-87l1.3-10.7l-10.4,2.9
	c0,0-128.1,35.3-131.8,36.4C195.1,93.6,58,55.4,58,55.4l1.4,10.7c0.1,0.5,6,46.1,17.2,87.4c6.8,25,14.6,44.3,22.3,62.6
	c-18.3-7.2-36.6-15.8-36.8-16l-16.6-7.9l6.8,17c16.3,40.8,24.6,63.2,35.1,91.6l13.5,36.4l7.2-3.7c10.8-5.5,33.1-14.3,50.3-16.5
	c19.8,27.5,35.5,41.7,36.2,42.3l4.9,4.4l4.8-4.5c0.7-0.6,16.6-15.6,36-42.2c20.1,2.1,37.4,10.2,46.2,15l7.1,3.9l3.1-7.4
	c8-19.3,47.6-116.6,48-117.6l7.7-18.9L334.5,202.1z"/>
<path class="st0" d="M348.9,206.8c-0.3,0.1-32,13.6-57.9,20c10.1-23.2,18.9-44.1,27.1-75.1c10.7-40.5,16.4-85.9,16.5-86.4l0.4-3.1
	l-3.1,0.8c0,0-132.1,36.4-133.2,36.7c-1.1-0.3-134.8-37.5-134.8-37.5l0.4,3.2c0.1,0.5,6,45.8,17.1,86.7
	c7.3,26.8,15.8,47.1,24.1,66.7c0,0,1.5,3.5,2.7,6.5c-22.4-5.6-52.8-16.2-53.1-16.4l-4.3-1.5l1.6,4.2C65.7,247,72.5,265.9,79.7,286
	l14.6,40.3l1.9-0.6c20.7-6.4,47.4-11.5,64.2-13.6c19.3,27.8,37.3,43.5,37.5,43.6l1.4,1.2l1.4-1.2c0.2-0.2,17.3-15.7,37.1-43.4
	c17.2,1.1,49.3,8.4,61.5,13.1l1.9,0.8l0.8-1.9c8-19.2,49.2-113.8,49.6-114.7l2.1-4.9L348.9,206.8z"/>
<path class="st1" d="M283.8,232.8l1.7-3.8c11.2-25.7,20-46,28.5-78.3c9-34.1,14.5-71.7,16-82.7c-5.9,1.6-130.7,36.1-130.7,36.1
	l-0.6,0.2c0,0-123.8-34.5-129.8-36.1c1.5,11,7.2,48.6,16.6,83c7.2,26.6,15.7,46.7,23.9,66.2l5.9,14.2l47.2,76.2l0.7,1.1
	c16.2,23.6,31.5,38.4,36.1,42.6c4.4-4.2,19.2-18.9,35.8-42.3l0.7-0.9L283.8,232.8z"/>
<path d="M109.7,186.7c-1.3-1.8-6.7-10.5-6.7-24.9c0-0.4,0-0.9,0-1.3c-3.7-10-5.8-20.8-5.8-32.1c0-26.7,11.5-50.9,30.1-68.5
	c18.6-17.5,44.2-28.4,72.5-28.4c28.3,0,53.9,10.9,72.5,28.4s30.1,41.8,30.1,68.5c0,9.9-1.6,19.5-4.5,28.5c0,18.3-5.4,35.4-14.8,49.8
	c-0.1,0.1-0.6,0.6-1.9,1.3c0,0-0.1,0-0.2,0.1c-0.1,0.1-0.2,0.2-0.2,0.5c0,0-0.2,1.1-0.5,2l0.2-0.1l-0.4,0.6
	c-17.5,23.9-46.3,39.4-78.8,39.4C158.6,250.6,122.5,223.8,109.7,186.7"/>
<path class="st2" d="M338.3,215.2c-0.6,0.3-65.3,28.1-139.5,27.7h0c-65.3-0.3-139.3-28.1-140-28.4l-15.6-5.9l5.6,14.9
	c0.1,0.4,0.1,0.4,35.1,94.3l2.5,6.8l6.9-2.2c15.4-4.9,56.5-16.2,105.3-16.2c45.3,0,84.9,9.3,101.2,14.8l6.9,2.3l2.7-6.8
	c1-2.5,23.9-56,39.1-91.4l7.5-17.5L338.3,215.2z"/>
<path class="st0" d="M339,224.3l-6.6,2.4c0,0-14.6,5.3-14.7,5.3c-0.7,0.2-6,1.9-10.1,5.4c-1.4,1.2-2.9,2.9-4.2,4.7
	c0.3-0.7,0.4-1.2,0.4-1.2l2-5.4l-5.6,1.5l-13.3,3.5v0c-1.3,0.3-10.3,2.2-13,2.8l-3.1,0.5l-15.6,2.6c-0.7,0.1-6.7,1.2-9.8,4.3
	c-0.7,0.7-1.3,1.5-1.8,2.3l0.9-5.2l-3.9,0.4l-12.6,1.2l-0.4,3.2c-0.3-0.4-0.7-0.8-1.2-1.1c-2.4-1.8-6.3-1.8-7.5-1.7
	c0,0-18.4,0.5-18.4,0.5v0l-14.9-0.1c-0.6,0-5.3,0.2-8.5,3.2c-0.5,0.5-0.9,1-1.3,1.5c-0.1-1.8-0.1-2.8-0.1-2.8l-0.1-2.6
	c0,0-15-1.4-15.6-1.4v0l-18.2-2.3l0.8,4.1l0.2,1.1c-4.1-4.8-10.6-6.5-10.9-6.6c-0.1,0-18.7-4.2-18.7-4.2l1.2,4.8l0.9,3.5
	c-0.5-1-1.1-1.8-1.7-2.6c-2.7-3.5-5-6-10.3-7.9c-4.6-1.6-13.9-3.8-14.3-3.9l-5.3-1.2l0,0c-4.8-2.1-15.4-5.5-19-6.7l-5.9-1.9l2.2,5.8
	l30.8,82.9c0,0,12.1-3.3,12.7-3.5c0,0,0,0,0,0s12.7-3,13.6-3.2c0.6-0.1,13.3-2.4,13.3-2.4l0-0.1c3.5-0.5,10.6-1.6,11.3-1.7
	c0.6-0.1,6.7-1,10.1-1.4v0c0,0,12.8-1.3,12.8-1.3c1.4-0.1,5.5-0.5,7.7-2.3c0.8-0.6,1.5-1.4,2-2.1l0.2,3.5l15.1-0.5l0.1,0
	c0.5-0.1,4.6-0.5,7.2-3.1c0.3-0.3,0.6-0.6,0.9-1l-0.1,3.9c0,0,11.6,0.3,12.2,0.3v0l13.8,0.4l0,0l9.9,0.8l12.6,1.4
	c0.5,0.1,4.9,0.4,9-1.8c0.4-0.2,0.7-0.4,1-0.7l-1,3.6l12.9,2.2c0,0,0-0.1,0-0.1c0.4,0.1,9.3,1.7,11.4,2.1l1.4,0.4
	c0.3,0.1,6.6,1.7,11.5,1.1c5.9-0.7,12-5.5,14.7-11.7l12.8-29.4h-0.1C321,265.8,339,224.3,339,224.3"/>
<polygon points="225.2,295.6 233.2,296.2 240.8,251.2 230.7,252.2 "/>
<path d="M258.4,254.6l-3.8,16.1l10-0.3l6.6-23.5l-15.4,2.6c0,0-5.6,0.9-8.2,3.5c-3.5,3.5-4.4,10-4.4,10l-6.2,33.6l10,1
	c0,0,4,0.5,7.3-1.2c2.4-1.2,3.9-3.8,4.7-6.2c0.8-2.4,3.1-12,3.1-12H253l-2,9.5c0,0-0.3,1.9-1.7,3.7c-1.4,1.9-4.1,1.7-4.1,1.7l6.6-30
	c0,0,1.1-4.1,2.5-6.2C255.9,254.5,258.4,254.6,258.4,254.6"/>
<path d="M275.7,271.4l8.6-27.2l-8.8,1.9L260,299.2l6.9,1.1l7.3-22.7l2.1-0.1c0,0,1.3,0.5,1.3,1.8c0,1.3-0.6,2.8-0.6,2.8l-6.1,18.8
	l8.1,1.5l6.7-19.5c0,0,1.1-3.2,0.8-4.8c-0.4-2.7-1.7-4.3-1.7-4.3s1.7,0,3.9-2.2c2.2-2.1,2.2-3.8,2.8-5.4c0.6-1.6,9.5-26.1,9.5-26.1
	l-11.6,2.9l-6.8,21.9c0,0-0.5,2.2-1.6,3.8c-1.1,1.6-1.9,2.2-2.5,2.3C277,271.4,275.7,271.4,275.7,271.4"/>
<path d="M315.9,244.6l-7.5,20.1l10.3-0.5l14.7-34.6l-14.7,5.4c0,0-5.3,1.6-9.2,4.8c-3.1,2.6-6.7,8.6-7.5,10.5s-4.2,9.4-4.7,11.8
	c-0.6,2.4-5.6,15.8-5.6,15.8h11.7l-5,13.2c0,0-0.6,3-2.5,5.4c-1.9,2.4-4.7,2.7-4.7,2.7l6.7-16.9h-7.2l-7.9,21.1
	c0,0,5.9,1.7,10.3,1.2c4.5-0.5,9.8-4.2,12.3-9.9c2.5-5.6,10.9-25,10.9-25l-14,0.7l4.3-12.3c0,0,2.9-7.1,5-9.6
	C312.7,246.7,315.9,244.6,315.9,244.6"/>
<path d="M63.8,229l29.8,80.3l8.8-2.5l-22.1-64.9c0,0,3.3,0.3,6.1,5.4c2.8,5.1,4.2,8.9,5,12.1c0.8,3.2,14.9,46.6,14.9,46.6l9-2.1
	l-17.2-57.1c0,0,2.2,0,4.4,3.8c2.2,3.8,3.1,7,3.1,7l13.2,45.6l8.6-1.7l-11-42.3c0,0-2.5-7.4-5.3-11.3c-2.2-3-4.7-5.4-8.9-6.8
	c-4.4-1.5-14-4-14-4l1.4,4.3c0,0-3.2-3.5-6.1-5.1C81,234.8,63.8,229,63.8,229"/>
<path d="M143.8,298.7l7.5-1l-6.4-33.4c0,0-1.5-7.5-3.4-10.4c-3.3-5.1-10.4-6.9-10.4-6.9l-13.8-2.8l14.3,56.4l8.5-1.4l-5.3-21.1
	l4.9,0.1L143.8,298.7z M133.8,273l-4.8-20.8c0,0,2.8,0.6,4.5,2.2c1.7,1.6,2.2,6.1,2.2,6.1l2.5,12.5H133.8z"/>
<path d="M145.7,249.3l9.5,48l10.2-1.1c0,0,4.7-0.2,6-1.2c2.8-2.2,2.8-5.4,2.8-5.4l-1.2-37.3l-9.9-1l3.6,35.3c0,0,0.2,3.2-1.4,4.8
	c-1.3,1.4-2.8,1.1-2.8,1.1l-5.1-41.8L145.7,249.3z"/>
<path d="M178.3,295.3l12-0.5c0,0,3.5-0.4,5.5-2.2c1.9-1.9,2.3-5.3,2.3-5.3l0.2-6.8l-8.1,0.1l0.1,6.7c0,0,0.1,2.2-0.9,3.2
	c-0.8,0.8-3.6,0.7-3.6,0.7l0-13.5h12.5l0.3-4.1l-13,0.1l0-11.9c0,0-0.1-1.7,1.1-2.6c1.3-1,3.6-0.7,3.6-0.7v12.2h8.6l1.1-17.5
	l-14.4-0.3c0,0-3.9,0.1-6.4,2.4c-2.9,2.7-2.5,8.9-2.5,8.9L178.3,295.3z"/>
<path d="M224.6,254.5c-1.6-1.6-5.5-1.4-5.5-1.4l-15.7,0.4l-1.6,41.3l7.9,0.2l1-17c0,0,2.5-0.8,3.7,0.9c0.8,1.2,0.7,2.5,0.7,2.5
	l-1,13.6l7.8,0.4l1.4-13.7c0,0,0.4-2.4-0.4-4.2c-0.7-1.6-2.4-2-2.4-2s1.1,0,2.8-1.9c1.7-1.9,1.7-4.6,1.7-4.6l1-9.5
	C225.8,259.5,226.3,256.3,224.6,254.5 M216.5,259.6l-0.6,10.5c0,0,0,1.3-0.6,2.2c-0.6,0.8-1.3,0.9-1.3,0.9l-2.9-0.1l0.8-15.6
	l2.1-0.1c0,0,1.2-0.1,1.8,0.4C216.6,258.2,216.5,259.6,216.5,259.6"/>
<path d="M217.8,313.5l9.8-2.4l-10-0.9c-0.4,0-9.7-0.9-14.4-0.9c-0.6-1.8-4.5-13.8-4.5-13.8l-1.7,4.6c-0.1,0.3-2.2,6-3.3,9.2
	c-5.4,0-12.6,0.7-12.9,0.7l-10.5,1.1l10.3,2.2c3.1,0.7,9.5,2.9,10.1,5.6c-0.8,3.2-3,8.8-3,8.8l-2,5.2c0,0,11.2-7.8,12.8-8.9
	c1.6,1.1,12.5,8.7,12.5,8.7s-4.5-12.9-4.9-14C207.2,317.1,212.8,314.7,217.8,313.5"/>
<path class="st0" d="M203.5,318.5c0.7-2.7,5.4-4.9,9.1-6.1c-3.7-0.3-8.4-0.7-10.7-0.6l-0.6,0c0,0-1.8-5.3-2.8-8.1
	c-0.9,2.4-2.1,5.9-2.6,7.6l-0.2,0.6l-0.6,0c-2.6,0-6.2,0.2-9,0.4c3.3,1.3,7.1,3.4,7.5,6.5l0,0.2l0,0.2c-0.4,1.9-1.4,4.8-2.2,6.9
	c2.6-1.8,7.3-5.1,7.3-5.1s4.9,3.4,7.4,5.2c-1-2.8-2.6-7.3-2.6-7.3L203.5,318.5z"/>
<path class="st0" d="M102.5,128.5c0-50.5,43.6-91.6,97.3-91.6c53.6,0,97.3,41.1,97.3,91.6c0,50.5-43.6,91.6-97.3,91.6
	C146.1,220.1,102.5,179,102.5,128.5"/>
<path d="M140.7,67l0.2-0.2c1.2-1,2.2-1.2,3-0.2c0.7,0.9,0.1,1.9-0.9,2.8l-0.2,0.2L140.7,67z M141,74.1l4.1-3.3
	c2.6-2.1,3.5-4.9,2-6.8c-1.9-2.4-5-1.5-8.1,0.9l-3.3,2.7L141,74.1z"/>
<path d="M165.1,55.5l-0.3-2.7l0.1-0.1c0.2,0.3,0.4,0.6,0.7,0.9l1,1.2L165.1,55.5z M165.2,57.6l2.9-1.2l0.8,0.8l4.1-1.7l-7-6.2
	l-4.3,1.7l-0.5,9.3l4.1-1.7L165.2,57.6z"/>
<polygon points="185.5,44.2 189.6,43.8 190.3,49.4 193.8,49 194.1,51.7 186.4,52.6 "/>
<polygon points="209.4,43.8 213.6,44.4 212.7,50 216.2,50.5 215.8,53.2 208.2,52.1 "/>
<path d="M234.8,55.9l1.7-2l0.1,0.1c-0.1,0.4-0.2,0.7-0.2,1.1l-0.1,1.5L234.8,55.9z M233.3,57.4l2.9,1.3l-0.1,1.1l4.1,1.8l-0.4-9.3
	l-4.3-1.8l-7.1,6.1l4.1,1.8L233.3,57.4z"/>
<path d="M254.2,67l0.1,0.2c0.3,0.8,0.8,1.6,1.5,2.3c0.3,0.3,0.9,0.6,1.1,0.3c0.2-0.3-0.2-0.7-0.4-1l-0.6-0.6
	c-1.1-1.2-1.8-2.6-0.9-3.6c1.3-1.5,3.9-0.8,5.8,0.8c1,0.8,1.8,1.8,2.4,2.9l-2.2,0.9c-0.3-0.7-0.8-1.5-1.5-2c-0.3-0.2-0.8-0.5-1-0.2
	c-0.2,0.2,0.2,0.6,0.4,0.9l0.6,0.7c1.2,1.3,1.7,2.7,0.8,3.8c-1.3,1.5-3.9,0.7-5.8-0.9c-1.1-0.9-2.2-2.2-2.9-3.4L254.2,67z"/>
<path d="M281.3,105.1c-0.6-0.6-1.9-1.4-1.9-1.4c-0.5-0.2-0.6-0.6-0.6-0.6c-0.3-1.6-0.6-2.2-0.6-2.2c-8.4-10.8-19.1-19.7-31.4-26.1
	c-2.2-1-4.2-1.1-4.2-1.1c-0.4,0-0.7-0.3-0.7-0.3c-0.7-1-2.9-2.1-3.7-2.5c-11.4-4.6-23.9-7.1-37-7.1c-4,0-7.9,0.2-11.7,0.7l5.1-6.8
	c-20.2-0.6-34.7,15.1-34.7,15.1l0,0c-4.9,2.3-9.5,4.9-13.9,7.8l0,0c-10.5,3.8-13.6,12.2-13.6,12.2c-2.7,2.2-8,9.2-8,9.2
	c-1.5,0.9-3.1,2.3-3.6,2.7c-2.4,2.5-6.9,8.2-9.2,17.9c-0.1,0.2-0.1,0.3-0.2,0.5c-0.1,0.5-0.2,1.2-0.3,1.8c-0.2,1.2-0.4,2.4-0.6,3.6
	l0.1-0.1c0,0.3-0.1,0.4-0.1,0.4c-0.3,0.2-1.8,6.2-1.8,6.2c-0.2,0.8-3,9-3,9l0,0c0,0,0,0,0,0.1c-7.2,25.2,2.4,40.4,4,42.8
	c12.8,37.1,48.9,63.8,91.4,63.8c32.4,0,61.1-15.5,78.6-39.4h0c0.5-0.8,0.7-2.4,0.7-2.4c0-0.5,0.4-0.8,0.4-0.8
	c1.3-0.7,1.8-1.2,1.9-1.3c9.3-14.4,14.7-31.4,14.7-49.7C297.6,137.8,291.6,119.9,281.3,105.1"/>
<path class="st0" d="M160.8,86.8c0.2-0.3,0.5-0.5,0.7-0.7c0.3-0.3,0.5-0.4,0.5-0.4c0,0,0.1-0.1,0.1-0.1c0.1-4.8,1.2-8.6,1.2-8.6
	c8.8-12.2,23.2-15.4,23.2-15.4c1.8-0.5,0.6,0.3,0.6,0.3c-9.1,10.1-8.1,18.5-8.1,18.5l8.7,31.5c0,0-7-2.5-12.5-13.5
	c-2.5,22.1,18.4,40,18.4,40c0.9,0.8-0.5-0.1-0.5-0.1c-5.2-2.6-11.3-8.1-12.9-9.6c0.4,1.7,10.6,52.7,10.7,52.9c0,0.2,0.2,0.7,0.3,1.1
	l3.5-8.7l2.9,25.8c-13.3,12.3-27.4,7.4-28.3,7.1c0.4,0.6,0.6,0.9,0.6,0.9c0,0,11.5,22.4,58.3,20.1c0,0,1.1,0,1,0.1
	c0,0-0.1,0.1-0.3,0.2c-0.9,0.3-2.3,0.5-2.3,0.5c-56.5,15-85.8-32.9-87-35c-0.4-0.5-3.1-4.3-4.6-8.2c-0.1-0.1-0.1-0.5,0.1-0.2
	c0,0,6,6.2,23,7.8c0.1,0,0.2,0,0.2,0c-13.1-14.5-18.7-25.1-19.5-26.7h0c0,0-1.6-2.4-3.5-9c0,0,0.1-0.3,0.2,0c0.6,1.3,5,7.7,10.3,9.1
	l0,0c-4.5-7.2-7.3-18.6-7.6-20.2c6.1,8.5,16.9,9.1,16.9,9.1c0,0,0-0.1-0.1-0.1c0,0,0,0.1,0,0.1c-17.8-17.7-14-36.9-6.7-50.8
	C152.5,96.2,157.9,89.9,160.8,86.8"/>
<path class="st1" d="M214,203.7l-11.7,12.2c0,0,0,0,0,0l14.4-11l-7.5-25.6l3.3-30.8l-5.7,29.4L214,203.7z"/>
<path class="st1" d="M211.1,141.4c0.2-0.1,0.5-0.2,0.7-0.4c0.9-0.5,2-1.3,3.2-2.5c2.3-2.4,4.6-6.3,4.6-12.4c0-2.7-0.5-6-1.6-9.6
	C217.8,120.8,216.6,136.7,211.1,141.4"/>
<path class="st1" d="M216.5,89.1c4.1-6.1,10.8-6.6,13.6-6.7c-2.4-0.7-4.7-1-6.7-1c-2.9,0-5.2,0.5-6.9,1.1c-1.2,0.4-2,0.8-2.4,0.9
	C215.1,84.9,216.1,88,216.5,89.1"/>
<path class="st1" d="M211.3,102c0.1,0,0.2,0.1,0.2,0.2c0,0.6,0,1.2,0,1.7c0,13.2-3.5,27.6-4.9,32.6c5.1-11.5,6.4-22.3,6.4-30.6
	c0-4.8-0.5-8.8-0.9-11.6c-0.2-1.4-0.5-2.6-0.7-3.3c-1.3,9.9-5.1,14.4-5.1,14.4c0,0-0.1,0.1-0.2,0.1c-0.1,0-0.1,0-0.2-0.1
	c-4.2-7.6-9.6-13.3-14-17c-3.4-2.8-6.1-4.6-7.3-5.2c11.8,25.6,15.3,45.4,16.2,51.9c0-0.8,0-1.5,0-2.3c0-7.8-1.3-16.7-2.7-23.6
	c-1.3-6.9-2.7-11.9-2.7-11.9c0-0.1,0-0.2,0.1-0.2c0.1,0,0.2,0,0.2,0c5.3,4.1,9.1,15.8,9.7,18c1-1.2,2.3-4.3,3.4-7.1
	c1.1-3,2-5.8,2-5.8C211.2,102,211.2,102,211.3,102L211.3,102 M206.3,105.3l0.2-0.1L206.3,105.3z"/>
<path class="st1" d="M111.6,155.2c0,12.2,2.1,24.9,12.7,41.2c10,20.9,28.3,32.1,36.9,36.4c2.8,1.4,4.6,2.1,4.6,2.1
	c13.6,6.4,26.4,8.7,37.8,8.7c24,0,42.2-10.3,49.8-15.4c2.5-1.7,3.9-2.8,3.9-2.9l0.1,0.2l-0.1-0.2c0.5-0.4,0.9-0.7,1.2-1
	c-0.1,0.1-0.3,0.2-0.5,0.3c-0.5,0.3-1,0.6-1,0.6c-18.7,10.9-35.8,14.2-49.9,14.2c-22,0-36.2-8.2-36.2-8.2
	c-46.6-24.3-47.3-66.5-47.3-66.5c0-0.1,0.1-0.2,0.2-0.2c0.1,0,0.2,0,0.2,0.1c6,11.6,13.3,15.5,16.6,16.8c0.5,0.2,0.8,0.3,1.1,0.4
	c-13.6-17-17.4-31.3-17.4-42.1c0-14.3,6.8-22.4,6.8-22.4c0.1-0.1,0.2-0.1,0.2-0.1c0.1,0,0.1,0.1,0.1,0.2c-1,5-1.3,9.5-1.3,13.3
	c0,6.3,1,11,2,14.1c0.5,1.7,1.1,2.9,1.4,3.7c-0.4-3.4-0.6-6.7-0.6-9.9c0-31.8,18.7-51.4,22.7-55.1c-3,1.2-6.6,4.4-9.5,7.4
	c-3.2,3.3-5.7,6.4-5.7,6.4c-0.1,0.1-0.1,0.1-0.2,0.1c-0.1,0-0.1-0.1-0.1-0.2c0-2.5,1.5-5.7,2.3-7.2c-2.4,2.2-4.4,5.6-5.8,8.6
	c-1.6,3.3-2.4,6.1-2.4,6.1l0,0.1c-4.9,5.6-8.2,11.4-10.2,15.8c-2,4.4-2.8,7.4-2.8,7.4c-0.2,0.7-0.3,1-0.4,1.2c0,0,0,0.1-0.2,0.2
	c-0.3-0.1-0.2-0.2-0.2-0.3c0-0.1,0-0.2,0-0.3c0-0.4,0.1-0.9,0.1-0.9c0.1-6,2.6-12.7,3.6-15.2c-7.1,7.6-8.8,17.9-8.8,26.1
	c0,7.8,1.5,13.7,1.5,13.7l0,0c0,4.8,1,10.8,1.9,15.6c1,4.8,1.9,8.3,1.9,8.3c0.3,0.9,0.4,1.3,0.4,1.6c0,0,0,0.1,0,0.1
	c0,0.1-0.1,0.1-0.2,0.1c-0.3-0.1-0.2-0.2-0.4-0.3c-0.1-0.1-0.2-0.3-0.3-0.5c-0.2-0.3-0.4-0.7-0.4-0.7c-5-7.6-7.4-20.1-7.9-23.2
	C111.6,154.2,111.6,154.7,111.6,155.2"/>
<path class="st2" d="M268.9,101.5c0,0-22.7-30.4-65.4-30.4c-0.1,0-0.3,0-0.5,0c-0.2,0-0.4,0-0.6,0c-0.2,0-0.4,0.1-0.5,0.4
	c0,0.3,0.2,0.4,0.5,0.5c0,0,5.9,4.5,9.6,9.1l0.1,0.1l0.1-0.1c0,0,1-0.5,2.8-1c1.8-0.5,4.3-1,7.3-1c4,0,8.7,0.8,13.7,3.6
	c-2.1,1-12.8,6.4-15.1,12.5l0,0.1l0.1,0.1c0,0,10.8,9.7,32.9,9.7c3.5,0,7.4-0.2,11.5-0.8c0,0,0.9-0.1,1.9-0.4c0.9-0.3,2-0.7,2-1.7
	C269.3,102.2,269.1,101.8,268.9,101.5"/>
<path class="st2" d="M222.9,144c-0.1-0.1-0.2-0.1-0.3,0c-0.1,0.1-0.1,0.2,0,0.3c0,0,0.3,0.3,0.7,0.8c1.2,1.7,3.7,5.9,3.7,13.2
	c0,5.1-1.2,11.7-5,19.9c0-1.4-0.2-4.2-0.8-7.1c-0.8-4.1-2.3-8.5-5.6-9.5c-0.1,0-0.1,0-0.2,0c0,0-0.1,0.1-0.1,0.1l-2,18l0,0.1
	l7.3,26.8l-14.3,11.5c-0.1,0.1-0.1,0.1-0.1,0.2c0,0.1,0.1,0.1,0.1,0.2c0,0,5.6,1.8,15,1.8c5,0,11.1-0.5,18.1-2c0,0,1.8-0.4,2.3-2.1
	c0,0,1.6-7.3,1.6-17.8C243.4,182.6,240,160.1,222.9,144"/>
<path class="st2" d="M246.5,216.3c-0.3-0.2-0.4-0.6-0.4-1.1c0-0.2,0-0.5,0.1-0.8c0,0,0.6-2.1,1.1-5.8c0.6-3.7,1.1-8.8,1.1-14.9
	c0-16.2-3.9-38.7-22-56.2c0,0-0.1-0.1-0.3-0.2c-0.1-0.1-0.3-0.2-0.4-0.5c0-0.1,0.1-0.2,0.2-0.2c0.1,0,0.2,0,0.2,0
	c0.2,0,0.4,0,0.8,0.1c0,0,4.8,1.5,8.2,5.2c-0.1-0.9-0.4-2.6-1-4.8c-0.9-3.1-2.6-7.2-5.6-10.7c0,0-0.2-0.2-0.4-0.4
	c-0.2-0.3-0.4-0.4-0.4-0.7c0,0,0-0.1,0.1-0.2c0.1-0.1,0.1-0.1,0.2-0.1c0.2,0,0.4,0.2,0.9,0.5c1.1,0.5,46.5,22.4,48.1,66.6
	c0,0,0,0.3,0,0.7c0,1.1-0.2,3.2-1.6,4.5c-0.4,0.5-11.2,13.9-27.1,19c0,0-0.5,0.2-1,0.2C247.1,216.6,246.7,216.6,246.5,216.3"/>
<path class="st2" d="M280.5,183.9c-0.9-36.5-35.4-61.3-52.7-71.5c-5.7-3.4-9.5-5.1-9.6-5.1l-0.8-0.4l0.9,0h0.1c6.1,0,9.9,3.7,11,5
	c0-2.2-0.9-4.7-0.9-4.7l-0.2-0.4l0.4,0.2c4.9,1.9,11.2,2.5,17.4,2.5c6,0,11.9-0.6,16.3-1.2c4.4-0.6,7.3-1.2,7.3-1.2
	c0.2,0,0.4,0,0.6,0c2.5,0,3.3,1.4,3.4,1.6c5.9,6.5,13.1,21.6,14.3,39.7c0.2,2.3,0.2,4.5,0.2,6.6c0,13.6-2.8,24.1-5,28.5
	c-0.8,1.5-1.3,2.3-2,2.4C280.7,185.7,280.5,185,280.5,183.9"/>
<path d="M180.9,66c0,0,0.1-0.1,0.1-0.1c0,0,0,0,0,0c-0.5,0.1-9.9,2.9-12.6,17.1c0,0,0,0.3,0.1,0c0.8-1.4,3.8-5.8,6.4-4.5
	c0,0,0-0.1,0-0.3C175.1,77,176,72.1,180.9,66"/>
<path d="M173.8,194.1c-2-4-15-32.2-15-32.2c-4,1.3-9-2-9-2l0,0c6.4,16.8,21.4,31.6,23.8,34.3c0,0,0,0,0,0c0.4,0.4,0.4,0.3,0.4,0.3
	C173.9,194.4,173.9,194.2,173.8,194.1"/>
<path d="M160.9,102.3c-11.7,26.6,14.6,37.6,15,37.7h0l-1.4-6.1l-0.8-3.5c-0.7-0.2-1.3-0.5-1.9-0.7c-0.2-0.1-0.4-0.2-0.6-0.3
	c-0.2-0.1-0.5-0.2-0.7-0.4c-11.5-6.1-10.4-20.6-9.7-25.4c0,0,0-0.1,0-0.1c0-0.1,0-0.3,0.1-0.4c0.1-0.4,0.1-0.8,0.2-0.9
	c0-0.1,0-0.1,0-0.1v0C161.1,101.8,161,102.2,160.9,102.3"/>
<path class="st1" d="M178.2,177.2l-1.9-33.4l11.3,37.3C187.6,181.1,183.9,172.3,178.2,177.2"/>
<path class="st1" d="M187.6,111.9l-8.7-31.5c0,0.2,0,0.2,0,0.7l2.5,20c0,0,0.1,0.3,0.1,0.7c0,1.1-0.7,2.6-6-3
	c-0.3-0.3-0.4-0.4-0.4-0.4C180.5,109.5,187.6,111.9,187.6,111.9"/>
<path class="st1" d="M166.9,117.6c-0.7-1.6-1-3.1-1-4.5c0-4.9,3.6-7.6,3.6-7.6l0.1-0.1c0,0.1-0.2-3.1,0.1-8.1
	c-2.9,4.2-9,14.3-1.7,22.1c-0.1-0.2-0.2-0.3-0.3-0.5C167.4,118.4,167.1,118,166.9,117.6"/>
<path d="M174.6,121.6c-1.2-2.2-4.4-9.1-4.9-16.1c0-0.1,0-0.1,0-0.2l-0.1,0.1c0,0-3.6,2.7-3.6,7.6c0,1.3,0.3,2.8,1,4.5
	c0.2,0.4,0.5,0.8,0.8,1.4c0.1,0.1,0.2,0.3,0.3,0.5c0.1,0.2,0.3,0.3,0.5,0.5c1.2,1.3,3.3,2.7,6.7,2.9
	C175.3,122.8,175,122.4,174.6,121.6"/>
<path class="st1" d="M185.1,181.5c0,0-5.6-1.4-5.2,10.1c0,0,0,0,0,0c0-0.3,0.1-0.6,0.3-1c1.7-3.8,3.2-5.3,4.6-5.4
	c1.2,0,2.1,1.1,2.8,2.5c0.7,1.5,1.3,3.5,1.8,5.4c0.4,1.6,0.7,3.2,0.9,4.5c0.1,0.8,0.2,1.8,0.2,3.1c0,0.1,0,0.1,0,0.1c0,0,0,0,0,0v0
	C190.7,199.6,193.1,183.7,185.1,181.5"/>
<path d="M190.4,200.9c0,0,0,0,0-0.1c-0.1-1.3-0.1-2.3-0.2-3.1c-0.2-1.3-0.5-2.9-0.9-4.5c-0.5-2-1-3.9-1.8-5.4
	c-0.7-1.5-1.6-2.5-2.8-2.5c-1.4,0-2.9,1.6-4.6,5.4c-0.1,0.3-0.2,0.7-0.3,1c0,0,0,0,0,0l2.8,6C182.7,197.6,184.2,181.5,190.4,200.9
	C190.4,200.9,190.4,200.9,190.4,200.9L190.4,200.9C190.4,200.9,190.4,200.9,190.4,200.9"/>
</svg>
