<svg xmlns="http://www.w3.org/2000/svg" viewBox="0 0 576 576"><defs><style>.a{fill:#fff;}.b{fill:#006bb6;}.c{fill:#ed174c;}</style></defs><title>PHI_logo</title><path class="a" d="M612,324c0,159.1-128.9,288-288,288S36,483.1,36,324,164.9,36,324,36,612,164.9,612,324" transform="translate(-36 -36)"/><path class="b" d="M53.1,380.6A276.7,276.7,0,0,0,380.6,594.9c72.3-15.1,135.1-57.1,175-119.3a282,282,0,0,0,39.3-208.1c-14.4-72.4-57.5-134.3-119.4-174.9a276.6,276.6,0,0,0-422.4,288" transform="translate(-36 -36)"/><path class="a" d="M418.2,108.4c.9,10.8-4.1,21.3-14.9,31.3-51.9-38.1-101.3-56.8-149.9-57A191.8,191.8,0,0,0,223.1,85,261.2,261.2,0,0,1,271,70.1a257.3,257.3,0,0,1,128.5,5.7c9,8.5,17.7,19.9,18.8,32.5" transform="translate(-36 -36)"/><path class="a" d="M364.1,555.4c54.6-50.1,79.8-157.4,94.9-221.6l2.4-10c7.8-32.7,21.5-57,36.3-71.6,54.7,85,47.3,172.8,33.5,227.9A257.5,257.5,0,0,1,377,577.9a261.6,261.6,0,0,1-53.2,5.5,175.1,175.1,0,0,0,40.2-28" transform="translate(-36 -36)"/><path class="a" d="M463.2,191.2c22.1-18.6,39.9-32.7,52.4-41.9a256.7,256.7,0,0,1,58.2,105.3c-10.2-13.7-23.3-26.7-37.4-29.6-12.2-2.5-24.7,1-36.4,9.3a331.8,331.8,0,0,0-36.8-43" transform="translate(-36 -36)"/><path class="a" d="M69.7,312.3C94.8,244.6,187.2,217.1,222,206.7l1.5-.5c11.4-3.4,27.8-6.2,46.7-9.4,44.8-7.6,100-17,133.3-41.9a532.6,532.6,0,0,1,41.7,35.6c-75.5,64.1-192.1,171.8-316.7,304.2a261,261,0,0,1-64-170.5l5.1-11.8" transform="translate(-36 -36)"/><path class="a" d="M454.5,182.7q-21-19.9-41.5-35.7c12.6-12.3,18.4-25.6,17.2-39.7-.7-8.5-4.1-16.5-8.6-23.5a263.5,263.5,0,0,1,85.7,56.8c-13.1,9.6-31,23.9-52.8,42.2" transform="translate(-36 -36)"/><path class="a" d="M393.5,147.5c-31.3,21.6-83.1,30.4-125.3,37.6-19.4,3.3-36.1,6.1-48.2,9.7l-1.5.5c-33.3,10-117.3,35.1-151.9,95.5A258.1,258.1,0,0,1,107,182c18.4-28.1,42.8-54,69.5-72.7,61.4-25.9,130.3-24.2,217,38.2" transform="translate(-36 -36)"/><path class="a" d="M534,236.6c18.1,3.7,37.6,34.1,46.9,51.7a257,257,0,0,1-31.5,164c1.4-8.8,2.5-18,3.3-27.7,3.6-48.5-3-114.7-45.8-180.2,9.5-6.7,19-9.4,27.2-7.7" transform="translate(-36 -36)"/><path class="a" d="M454,198.9a316.9,316.9,0,0,1,36.7,42.9c-17.7,16.9-32.8,44.9-40.9,79.2L447.4,331c-14.8,62.8-39.5,168-91.4,215.5-21.4,19.6-42.4,29.9-61.1,35.3A258.3,258.3,0,0,1,182,541a262,262,0,0,1-45.3-37.5C262.4,369.8,379.5,262.2,454,198.9" transform="translate(-36 -36)"/><path class="a" d="M395.6,401l7-1.9c4.2-1.1,7.1-2.6,7.1-8.7s-1.4-14.4-7.6-14.4-6.6,11.1-6.6,17.1Z" transform="translate(-36 -36)"/><path class="a" d="M311.2,397.1c0-22.2-.8-41.3-15.9-41.3-12.3,0-14.4,19.1-14.4,41.3s-.6,41.4,14.4,41.4c12.8,0,15.9-19.2,15.9-41.4" transform="translate(-36 -36)"/><path class="a" d="M395.6,401l7-1.9c4.2-1.1,7.1-2.6,7.1-8.7s-1.4-14.4-7.6-14.4-6.6,11.1-6.6,17.1Z" transform="translate(-36 -36)"/><path class="a" d="M279.3,346.3h.3c7.2-11.2,21-16.6,34.4-16.6,30.5,0,49.2,26.3,49.2,61.6,0,41.8-28.4,66.7-63.4,66.7-53.9,0-73.5-43.5-73.5-93.9,0-58,25.2-105.9,88-105.9,24.4,0,44.6,15.8,44.6,39.9,0,15.6-12.1,23.3-23.6,23.3-16.9,0-22.3-14.2-24.7-26.5-1-5.3,1-16.9-7.8-16.9-18.2,0-21.2,35.7-22,48.9Z" transform="translate(-36 -36)"/><path class="a" d="M311.2,397.1c0-22.2-.8-41.3-15.9-41.3-12.3,0-14.4,19.1-14.4,41.3s-.6,41.4,14.4,41.4c12.8,0,15.9-19.2,15.9-41.4" transform="translate(-36 -36)"/><path class="a" d="M485.8,357.7a17.9,17.9,0,0,0-13.8,6.3l-1.1-2.4L468,356l-41.4,12.1v22.7h8.9c.4.6,1,2.8,1,9.7v26.4l-7.6,1.1v24.9h57.4V428l-7.5-1.1v-7.7a97.6,97.6,0,0,1,2.1-17.8,26.5,26.5,0,0,0,7.5,1.1c10.3,0,17.5-9.2,17.5-22.5S497.8,357.7,485.8,357.7Z" transform="translate(-36 -36)"/><path class="a" d="M557.7,384.1a13.3,13.3,0,0,1-.7-3.6c0-6.8-2.7-22.6-27.8-22.6-13.9,0-41.1,10.7-41.1,35.4,0,9.2,2.7,15.9,6.7,20.8-5.5,3.2-8.8,9.4-8.8,17.1s4.5,23.9,34.5,23.9c25.7,0,40.4-13.3,40.4-36.6S559,389,557.7,384.1Z" transform="translate(-36 -36)"/><path class="a" d="M254.7,250.9a8.2,8.2,0,0,0-6.3-2.9c-3.8,0-6.8,2.4-10.4,6.2-12.2,12.9-28.8,19.8-47.8,19.8-25,0-51.3-11.5-72.1-31.5a8.8,8.8,0,0,0-6.1-2.5c-10.2,0-12.9,16.4-12.9,16.6v82.2l6.5,1c24.8,3.7,46.1,2.9,65.6-2.3-21,18.8-68.4,70-67.7,118.9.1,9,5.7,10,8.1,10a9.5,9.5,0,0,0,6.2-2.6l1.3-1c6.7-5,17.7-7.8,30-7.8,10.2,0,20.4,2,27.9,5.6a11.9,11.9,0,0,0,5.1,1.4,8.2,8.2,0,0,0,6.1-2.7c2.7-2.9,2.3-6.5,2.1-8.9-3.5-35.4,4.3-74.1,19.4-96.4l2.3-3.4c12.8-19,39.6-58.6,44.6-91.2C257.2,255.7,256.5,252.9,254.7,250.9Z" transform="translate(-36 -36)"/><path class="a" d="M445.4,407.8l-.4-6.2a61,61,0,0,0-1.8-11.6l-.3-7.1-1.3,2c-6.2-16.7-20.1-27.2-37.8-27.2-26.6,0-45.1,21-45.1,51.1,0,23.1,13.5,46.3,43.7,46.3,17.3,0,33.1-8.7,41.3-22.7l1.1-1.9-.9-22.3Zm-32.2,14.4c-2.9,0-4.9-1.8-6.1-4.1l14.7-4C417.6,419.1,414.4,421.8,413.2,422.2Z" transform="translate(-36 -36)"/><path class="a" d="M346.5,335.1l-4.6-6.6c13.1-2.6,24.6-12.9,24.6-30.2,0-27.1-22.5-47.5-52.2-47.5-59.9,0-95.6,42.5-95.6,113.6,0,64.5,29.6,101.5,81.1,101.5,41.8,0,71-30.6,71-74.4C370.8,369.5,356.2,348.8,346.5,335.1Z" transform="translate(-36 -36)"/><path class="b" d="M413.4,429.9c-9.3,0-14.8-8.5-15.7-17.1l39.9-10.7c-1.2-19.5-12.4-36.7-33.6-36.7s-37.5,17.6-37.5,43.5c0,20.2,11.6,38.7,36,38.7,14,0,27.5-6.6,34.7-18.9l-7.9-9.4C425.5,425.2,421,429.9,413.4,429.9Zm-17.6-36.8c0-6,0-17.1,6.6-17.1s7.6,9.3,7.6,14.4-2.9,7.6-7.1,8.7l-7,1.9Z" transform="translate(-36 -36)"/><path class="b" d="M478.8,445.3H436.7V434.7l7.6-1.1v-33c0-11.8-1.5-17.4-9.9-17.4v-9.3l29.9-8.8c3.4,6.6,4.5,14.3,5,21.8h.3c3-9,6.7-21.6,16.5-21.6s12.3,6.6,12.3,14.7-3.6,14.8-9.8,14.8c-4.3,0-8-1.8-10-2.5-5.5-1.9-7.2,21.9-7.2,26.8v14.4l7.5,1.1Z" transform="translate(-36 -36)"/><path class="b" d="M549.5,380.6c0,6.5-5.6,9.8-11.6,9.8s-12.3-5.9-13.7-12.9c-3.1,0-5.3,1.6-5.3,6.8,0,12.2,34.4,3.5,34.4,34.4,0,23.1-16.7,28.9-32.8,28.9-9.8,0-26.9-1.3-26.9-16.2,0-6.8,3.8-11.9,10.5-11.9,10.5,0,12.3,9.6,14,16.4.5,1.8,2,2.1,3.5,2.1,5.5,0,9.5-2.3,9.5-5.9,0-13.9-35.4-8.5-35.4-38.6,0-19.1,22.6-27.7,33.5-27.7,12.4,0,20.2,4.1,20.2,14.9" transform="translate(-36 -36)"/><path class="b" d="M314.1,329.8c-13.4,0-27.1,5.4-34.4,16.6h-.3l1.3-19.4c.8-13.1,3.8-48.9,22-48.9,8.8,0,6.8,11.6,7.8,16.9,2.4,12.4,7.8,26.5,24.7,26.5,11.5,0,23.6-7.6,23.6-23.3,0-24.1-20.1-39.9-44.6-39.9-62.8,0-88,47.9-88,105.9,0,50.4,19.6,93.9,73.5,93.9,35,0,63.4-24.9,63.4-66.7C363.3,356.1,344.6,329.8,314.1,329.8ZM295.5,438.5c-15,0-14.4-19.2-14.4-41.4s2.1-41.3,14.4-41.3c15,0,15.9,19.1,15.9,41.3S308.3,438.5,295.5,438.5Z" transform="translate(-36 -36)"/><path class="c" d="M106.8,257.4v74.8c41.9,6.2,91.9,2.1,127.2-49.6,1.5-2.2,2.4-.7,1.4,1.3-9.9,20.1-33.2,38.7-53.4,54.5s-71.4,69.8-70.7,117.8c0,3.7.2,2.7,3.4.3,15.8-11.7,46.7-12.1,65.7-3,2.7,1.2,2.9.9,2.5-2.6-3.6-37.2,4.7-77.9,20.7-101.5,11-16.4,40.6-58.4,45.7-91.5.5-3.4-1.2-2.9-5.5,1.6-33.5,35.4-94.1,34.5-133.2-3-2.5-2.4-3.6-1.3-3.8.8" transform="translate(-36 -36)"/><circle class="a" cx="143.5" cy="176.5" r="71.7"/><polygon class="b" points="143.4 107.3 145.8 115 153.9 115 147.3 119.7 149.7 127.2 143.4 122.7 137 127.2 139.4 119.7 132.8 115 140.9 115 143.4 107.3"/><polygon class="b" points="191.1 135.2 193.6 142.8 201.7 142.8 195.1 147.6 197.5 155 191.1 150.4 184.7 155 187.2 147.6 180.5 142.8 188.7 142.8 191.1 135.2"/><polygon class="b" points="170.6 113.7 173.1 121.3 181.2 121.3 174.6 126.1 177 133.6 170.6 129 164.3 133.6 166.7 126.1 160.1 121.3 168.2 121.3 170.6 113.7"/><polygon class="b" points="198.9 161.5 201.3 169.1 209.4 169.1 202.9 173.8 205.3 181.4 198.9 176.7 192.6 181.4 195 173.8 188.4 169.1 196.4 169.1 198.9 161.5"/><polygon class="b" points="195.5 189.2 197.9 196.8 206 196.8 199.5 201.7 201.9 209.2 195.5 204.5 189.2 209.2 191.5 201.6 185 196.8 193.1 196.8 195.5 189.2"/><polygon class="b" points="180.2 211.4 182.5 219 190.7 219 184.1 223.8 186.5 231.3 180.2 226.7 173.8 231.3 176.2 223.8 169.6 219 177.7 219 180.2 211.4"/><polygon class="b" points="156 223.8 158.5 231.5 166.5 231.5 160 236.3 162.4 243.8 156 239.2 149.7 243.8 152.1 236.3 145.5 231.5 153.6 231.5 156 223.8"/><polygon class="b" points="94.8 132.7 92.3 140.3 84.2 140.3 90.8 145.1 88.4 152.6 94.7 148 101.1 152.6 98.7 145.1 105.3 140.3 97.2 140.3 94.8 132.7"/><polygon class="b" points="114.7 113.7 112.3 121.3 104.2 121.3 110.8 126.1 108.4 133.6 114.7 129 121.1 133.6 118.7 126.1 125.3 121.3 117.2 121.3 114.7 113.7"/><polygon class="b" points="85.5 158.1 83.1 165.6 74.9 165.6 81.6 170.4 79.1 178 85.5 173.3 91.8 178 89.4 170.4 96.1 165.6 88 165.6 85.5 158.1"/><polygon class="b" points="88 185.8 85.5 193.4 77.4 193.4 84 198.3 81.6 205.8 87.9 201.1 94.3 205.8 91.9 198.2 98.5 193.4 90.4 193.4 88 185.8"/><polygon class="b" points="103.3 208.5 100.9 216.1 92.8 216.1 99.3 220.9 96.9 228.4 103.3 223.8 109.7 228.4 107.3 220.9 113.8 216.1 105.7 216.1 103.3 208.5"/><polygon class="b" points="127.4 222.9 125 230.5 116.9 230.5 123.5 235.3 121.1 242.8 127.4 238.2 133.8 242.8 131.4 235.3 138 230.5 129.9 230.5 127.4 222.9"/></svg>